<?xml version="1.0" encoding="UTF-8" standalone="no"?>
<!-- Created with Inkscape (http://www.inkscape.org/) -->

<svg
   xmlns:dc="http://purl.org/dc/elements/1.1/"
   xmlns:cc="http://creativecommons.org/ns#"
   xmlns:rdf="http://www.w3.org/1999/02/22-rdf-syntax-ns#"
   xmlns:svg="http://www.w3.org/2000/svg"
   xmlns="http://www.w3.org/2000/svg"
   xmlns:sodipodi="http://sodipodi.sourceforge.net/DTD/sodipodi-0.dtd"
   xmlns:inkscape="http://www.inkscape.org/namespaces/inkscape"
   width="115.88484mm"
   height="88.225746mm"
   viewBox="0 0 410.61557 312.6109"
   id="svg2"
   version="1.1"
   inkscape:version="0.91 r13725"
   sodipodi:docname="finalprojectassets.svg">
  <defs
     id="defs4" />
  <sodipodi:namedview
     id="base"
     pagecolor="#ffffff"
     bordercolor="#666666"
     borderopacity="1.0"
     inkscape:pageopacity="0.0"
     inkscape:pageshadow="2"
     inkscape:zoom="1"
     inkscape:cx="200.43996"
     inkscape:cy="145.22799"
     inkscape:document-units="px"
     inkscape:current-layer="layer1"
     showgrid="false"
     inkscape:window-width="1920"
     inkscape:window-height="1057"
     inkscape:window-x="-8"
     inkscape:window-y="-8"
     inkscape:window-maximized="1"
     showguides="false"
     fit-margin-top="0"
     fit-margin-left="0"
     fit-margin-right="0"
     fit-margin-bottom="0"
     inkscape:object-paths="true" />
  <metadata
     id="metadata7">
    <rdf:RDF>
      <cc:Work
         rdf:about="">
        <dc:format>image/svg+xml</dc:format>
        <dc:type
           rdf:resource="http://purl.org/dc/dcmitype/StillImage" />
        <dc:title></dc:title>
      </cc:Work>
    </rdf:RDF>
  </metadata>
  <g
     inkscape:label="Layer 1"
     inkscape:groupmode="layer"
     id="layer1"
     transform="translate(-303.23551,-3051.418)">
    <g
       transform="matrix(0.83354161,0,0,1,974.79545,2360.4403)"
       id="g5857">
      <path
         style="opacity:1;fill:#d62246;fill-opacity:1;stroke:none;stroke-width:1.96099997;stroke-miterlimit:4;stroke-dasharray:none;stroke-opacity:1"
         d="m -477.63115,838.35819 c -2.3765,25.32634 1.56502,41.70266 -161.38537,43.65746 -154.66981,1.3032 -162.96416,-15.06293 -161.38535,-43.65746 -5.26344,-25.09795 68.92043,-42.02849 156.83929,-42.02849 75.4042,2.06583 165.67023,-0.0801 165.93143,42.02849 z"
         id="path5859"
         inkscape:connector-curvature="0"
         sodipodi:nodetypes="ccccc" />
      <path
         sodipodi:nodetypes="ccccccccccccc"
         inkscape:connector-curvature="0"
         id="path5861"
         d="m -659.29479,822.01871 c 3.81656,-4.3053 9.05055,-13.04843 11.41543,-12.80867 4.46461,0.0685 3.66623,8.64206 5.48344,12.98879 28.41926,-2.69543 83.97502,-12.50548 85.25779,-8.08628 1.33703,4.65829 -42.83433,10.13132 -64.2515,15.197 25.81131,4.63207 80.80841,8.38436 77.43394,13.89623 -2.27438,3.92561 -63.18513,-5.73317 -94.7777,-8.59976 3.97013,5.64995 15.03783,15.22976 10.36459,16.5545 -4.61415,1.52157 -13.01639,-9.50855 -19.52458,-14.26284 -14.1404,3.6441 -39.08122,15.00047 -42.42123,10.93217 -2.84665,-3.29124 8.23988,-8.57304 12.78112,-12.37247 -19.07231,-3.95121 -62.48223,-5.67133 -61.76403,-10.49664 0.7468,-5.35707 53.33515,-1.96135 80.00273,-2.94203 z"
         style="fill:#ff86d5;fill-opacity:1;fill-rule:evenodd;stroke:none;stroke-width:1px;stroke-linecap:butt;stroke-linejoin:miter;stroke-opacity:1" />
    </g>
  </g>
</svg>
