<?xml version="1.0" encoding="UTF-8" standalone="no"?>
<!-- Created with Inkscape (http://www.inkscape.org/) -->

<svg
   xmlns:dc="http://purl.org/dc/elements/1.1/"
   xmlns:cc="http://creativecommons.org/ns#"
   xmlns:rdf="http://www.w3.org/1999/02/22-rdf-syntax-ns#"
   xmlns:svg="http://www.w3.org/2000/svg"
   xmlns="http://www.w3.org/2000/svg"
   xmlns:sodipodi="http://sodipodi.sourceforge.net/DTD/sodipodi-0.dtd"
   xmlns:inkscape="http://www.inkscape.org/namespaces/inkscape"
   width="115.88484mm"
   height="88.225746mm"
   viewBox="0 0 410.61557 312.6109"
   id="svg2"
   version="1.1"
   inkscape:version="0.91 r13725"
   sodipodi:docname="finalprojectassets.svg">
  <defs
     id="defs4" />
  <sodipodi:namedview
     id="base"
     pagecolor="#ffffff"
     bordercolor="#666666"
     borderopacity="1.0"
     inkscape:pageopacity="0.0"
     inkscape:pageshadow="2"
     inkscape:zoom="1"
     inkscape:cx="200.43996"
     inkscape:cy="145.22799"
     inkscape:document-units="px"
     inkscape:current-layer="layer1"
     showgrid="false"
     inkscape:window-width="1920"
     inkscape:window-height="1057"
     inkscape:window-x="-8"
     inkscape:window-y="-8"
     inkscape:window-maximized="1"
     showguides="false"
     fit-margin-top="0"
     fit-margin-left="0"
     fit-margin-right="0"
     fit-margin-bottom="0"
     inkscape:object-paths="true" />
  <metadata
     id="metadata7">
    <rdf:RDF>
      <cc:Work
         rdf:about="">
        <dc:format>image/svg+xml</dc:format>
        <dc:type
           rdf:resource="http://purl.org/dc/dcmitype/StillImage" />
        <dc:title></dc:title>
      </cc:Work>
    </rdf:RDF>
  </metadata>
  <g
     inkscape:label="Layer 1"
     inkscape:groupmode="layer"
     id="layer1"
     transform="translate(-303.23551,-3051.418)">
    <g
       transform="matrix(0.78509009,0,0,0.94187271,246.47978,2539.0729)"
       id="g5734">
      <path
         style="fill:#eec155;fill-opacity:1;fill-rule:evenodd;stroke:none;stroke-width:1px;stroke-linecap:butt;stroke-linejoin:miter;stroke-opacity:1"
         d="m 85.615323,671.38299 c 10.04588,66.46354 446.858717,51.20463 455.363387,8.25344 4.35617,-17.80019 6.22985,-125.68149 -227.81614,-135.32529 -206.6071,-7.00927 -232.561105,94.16418 -227.547247,127.07185 z"
         id="path5736"
         inkscape:connector-curvature="0"
         sodipodi:nodetypes="cccc" />
      <path
         style="fill:#ffffff;fill-opacity:1;fill-rule:evenodd;stroke:none;stroke-width:1px;stroke-linecap:butt;stroke-linejoin:miter;stroke-opacity:1"
         d="m 165.24397,614.99679 c -2.91908,1.4496 -3.36912,5.32632 -3.11186,8.2598 3.82381,-0.45305 5.9512,-1.71508 8.07859,-5.25998 1.04686,-1.62086 -2.5051,-3.93841 -4.96673,-2.99982 z"
         id="path5738"
         inkscape:connector-curvature="0"
         sodipodi:nodetypes="cccc" />
      <path
         sodipodi:nodetypes="cccc"
         inkscape:connector-curvature="0"
         id="path5740"
         d="m 172.31504,587.21759 c -2.91908,1.4496 -3.36912,5.32632 -3.11186,8.2598 3.82381,-0.45305 5.9512,-1.71508 8.07859,-5.25998 1.04686,-1.62086 -2.5051,-3.93841 -4.96673,-2.99982 z"
         style="fill:#ffffff;fill-opacity:1;fill-rule:evenodd;stroke:none;stroke-width:1px;stroke-linecap:butt;stroke-linejoin:miter;stroke-opacity:1" />
      <path
         style="fill:#ffffff;fill-opacity:1;fill-rule:evenodd;stroke:none;stroke-width:1px;stroke-linecap:butt;stroke-linejoin:miter;stroke-opacity:1"
         d="m 207.67038,580.14652 c -2.91908,1.4496 -3.36912,5.32632 -3.11186,8.2598 3.82381,-0.45305 5.9512,-1.71508 8.07859,-5.25998 1.04686,-1.62086 -2.5051,-3.93841 -4.96673,-2.99982 z"
         id="path5742"
         inkscape:connector-curvature="0"
         sodipodi:nodetypes="cccc" />
      <path
         sodipodi:nodetypes="cccc"
         inkscape:connector-curvature="0"
         id="path5744"
         d="m 188.47748,617.01709 c -2.91908,1.4496 -3.36912,5.32632 -3.11186,8.2598 3.82381,-0.45305 5.9512,-1.71508 8.07859,-5.25998 1.04686,-1.62086 -2.5051,-3.93841 -4.96673,-2.99982 z"
         style="fill:#ffffff;fill-opacity:1;fill-rule:evenodd;stroke:none;stroke-width:1px;stroke-linecap:butt;stroke-linejoin:miter;stroke-opacity:1" />
      <path
         style="fill:#ffffff;fill-opacity:1;fill-rule:evenodd;stroke:none;stroke-width:1px;stroke-linecap:butt;stroke-linejoin:miter;stroke-opacity:1"
         d="m 212.04891,604.87423 c -2.91908,1.4496 -3.36912,5.32632 -3.11186,8.2598 3.82381,-0.45305 5.9512,-1.71508 8.07859,-5.25998 1.04686,-1.62086 -2.5051,-3.93841 -4.96673,-2.99982 z"
         id="path5746"
         inkscape:connector-curvature="0"
         sodipodi:nodetypes="cccc" />
      <path
         sodipodi:nodetypes="cccc"
         inkscape:connector-curvature="0"
         id="path5759"
         d="m 212.04891,639.15994 c -2.91908,1.4496 -3.36912,5.32632 -3.11186,8.2598 3.82381,-0.45305 5.9512,-1.71508 8.07859,-5.25998 1.04686,-1.62086 -2.5051,-3.93841 -4.96673,-2.99982 z"
         style="fill:#ffffff;fill-opacity:1;fill-rule:evenodd;stroke:none;stroke-width:1px;stroke-linecap:butt;stroke-linejoin:miter;stroke-opacity:1" />
      <path
         style="fill:#ffffff;fill-opacity:1;fill-rule:evenodd;stroke:none;stroke-width:1px;stroke-linecap:butt;stroke-linejoin:miter;stroke-opacity:1"
         d="m 267.04891,585.58851 c -2.91908,1.4496 -3.36912,5.32632 -3.11186,8.2598 3.82381,-0.45305 5.9512,-1.71508 8.07859,-5.25998 1.04686,-1.62086 -2.5051,-3.93841 -4.96673,-2.99982 z"
         id="path5761"
         inkscape:connector-curvature="0"
         sodipodi:nodetypes="cccc" />
      <path
         sodipodi:nodetypes="cccc"
         inkscape:connector-curvature="0"
         id="path5763"
         d="m 246.33462,573.44565 c -2.91908,1.4496 -3.36912,5.32632 -3.11186,8.2598 3.82381,-0.45305 5.9512,-1.71508 8.07859,-5.25998 1.04686,-1.62086 -2.5051,-3.93841 -4.96673,-2.99982 z"
         style="fill:#ffffff;fill-opacity:1;fill-rule:evenodd;stroke:none;stroke-width:1px;stroke-linecap:butt;stroke-linejoin:miter;stroke-opacity:1" />
      <path
         style="fill:#ffffff;fill-opacity:1;fill-rule:evenodd;stroke:none;stroke-width:1px;stroke-linecap:butt;stroke-linejoin:miter;stroke-opacity:1"
         d="m 226.33462,559.15994 c -2.91908,1.4496 -3.36912,5.32632 -3.11186,8.2598 3.82381,-0.45305 5.9512,-1.71508 8.07859,-5.25998 1.04686,-1.62086 -2.5051,-3.93841 -4.96673,-2.99982 z"
         id="path5765"
         inkscape:connector-curvature="0"
         sodipodi:nodetypes="cccc" />
      <path
         sodipodi:nodetypes="cccc"
         inkscape:connector-curvature="0"
         id="path5767"
         d="m 194.19176,562.73137 c -2.91908,1.4496 -3.36912,5.32632 -3.11186,8.2598 3.82381,-0.45305 5.9512,-1.71508 8.07859,-5.25998 1.04686,-1.62086 -2.5051,-3.93841 -4.96673,-2.99982 z"
         style="fill:#ffffff;fill-opacity:1;fill-rule:evenodd;stroke:none;stroke-width:1px;stroke-linecap:butt;stroke-linejoin:miter;stroke-opacity:1" />
      <path
         style="fill:#ffffff;fill-opacity:1;fill-rule:evenodd;stroke:none;stroke-width:1px;stroke-linecap:butt;stroke-linejoin:miter;stroke-opacity:1"
         d="m 144.90605,577.73137 c -2.91908,1.4496 -3.36912,5.32632 -3.11186,8.2598 3.82381,-0.45305 5.9512,-1.71508 8.07859,-5.25998 1.04686,-1.62086 -2.5051,-3.93841 -4.96673,-2.99982 z"
         id="path5769"
         inkscape:connector-curvature="0"
         sodipodi:nodetypes="cccc" />
      <path
         sodipodi:nodetypes="cccc"
         inkscape:connector-curvature="0"
         id="path5771"
         d="m 129.19177,612.01709 c -2.91908,1.4496 -3.36912,5.32632 -3.11186,8.2598 3.82381,-0.45305 5.9512,-1.71508 8.07859,-5.25998 1.04686,-1.62086 -2.5051,-3.93841 -4.96673,-2.99982 z"
         style="fill:#ffffff;fill-opacity:1;fill-rule:evenodd;stroke:none;stroke-width:1px;stroke-linecap:butt;stroke-linejoin:miter;stroke-opacity:1" />
      <path
         sodipodi:nodetypes="cccc"
         inkscape:connector-curvature="0"
         id="path5773"
         d="m 274.52968,646.42536 c -2.91908,1.4496 -3.36912,5.32632 -3.11186,8.2598 3.82381,-0.45305 5.9512,-1.71508 8.07859,-5.25998 1.04686,-1.62086 -2.5051,-3.93841 -4.96673,-2.99982 z"
         style="fill:#ffffff;fill-opacity:1;fill-rule:evenodd;stroke:none;stroke-width:1px;stroke-linecap:butt;stroke-linejoin:miter;stroke-opacity:1" />
      <path
         style="fill:#ffffff;fill-opacity:1;fill-rule:evenodd;stroke:none;stroke-width:1px;stroke-linecap:butt;stroke-linejoin:miter;stroke-opacity:1"
         d="m 281.60075,618.64616 c -2.91908,1.4496 -3.36912,5.32632 -3.11186,8.2598 3.82381,-0.45305 5.9512,-1.71508 8.07859,-5.25998 1.04686,-1.62086 -2.5051,-3.93841 -4.96673,-2.99982 z"
         id="path5776"
         inkscape:connector-curvature="0"
         sodipodi:nodetypes="cccc" />
      <path
         sodipodi:nodetypes="cccc"
         inkscape:connector-curvature="0"
         id="path5778"
         d="m 316.95609,611.57509 c -2.91908,1.4496 -3.36912,5.32632 -3.11186,8.2598 3.82381,-0.45305 5.9512,-1.71508 8.07859,-5.25998 1.04686,-1.62086 -2.5051,-3.93841 -4.96673,-2.99982 z"
         style="fill:#ffffff;fill-opacity:1;fill-rule:evenodd;stroke:none;stroke-width:1px;stroke-linecap:butt;stroke-linejoin:miter;stroke-opacity:1" />
      <path
         style="fill:#ffffff;fill-opacity:1;fill-rule:evenodd;stroke:none;stroke-width:1px;stroke-linecap:butt;stroke-linejoin:miter;stroke-opacity:1"
         d="m 297.76319,648.44566 c -2.91908,1.4496 -3.36912,5.32632 -3.11186,8.2598 3.82381,-0.45305 5.9512,-1.71508 8.07859,-5.25998 1.04686,-1.62086 -2.5051,-3.93841 -4.96673,-2.99982 z"
         id="path5780"
         inkscape:connector-curvature="0"
         sodipodi:nodetypes="cccc" />
      <path
         sodipodi:nodetypes="cccc"
         inkscape:connector-curvature="0"
         id="path5783"
         d="m 321.33462,636.3028 c -2.91908,1.4496 -3.36912,5.32632 -3.11186,8.2598 3.82381,-0.45305 5.9512,-1.71508 8.07859,-5.25998 1.04686,-1.62086 -2.5051,-3.93841 -4.96673,-2.99982 z"
         style="fill:#ffffff;fill-opacity:1;fill-rule:evenodd;stroke:none;stroke-width:1px;stroke-linecap:butt;stroke-linejoin:miter;stroke-opacity:1" />
      <path
         style="fill:#ffffff;fill-opacity:1;fill-rule:evenodd;stroke:none;stroke-width:1px;stroke-linecap:butt;stroke-linejoin:miter;stroke-opacity:1"
         d="m 364.19176,652.73137 c -2.91908,1.4496 -3.36912,5.32632 -3.11186,8.2598 3.82381,-0.45305 5.9512,-1.71508 8.07859,-5.25998 1.04686,-1.62086 -2.5051,-3.93841 -4.96673,-2.99982 z"
         id="path5785"
         inkscape:connector-curvature="0"
         sodipodi:nodetypes="cccc" />
      <path
         sodipodi:nodetypes="cccc"
         inkscape:connector-curvature="0"
         id="path5787"
         d="m 376.33462,617.01708 c -2.91908,1.4496 -3.36912,5.32632 -3.11186,8.2598 3.82381,-0.45305 5.9512,-1.71508 8.07859,-5.25998 1.04686,-1.62086 -2.5051,-3.93841 -4.96673,-2.99982 z"
         style="fill:#ffffff;fill-opacity:1;fill-rule:evenodd;stroke:none;stroke-width:1px;stroke-linecap:butt;stroke-linejoin:miter;stroke-opacity:1" />
      <path
         style="fill:#ffffff;fill-opacity:1;fill-rule:evenodd;stroke:none;stroke-width:1px;stroke-linecap:butt;stroke-linejoin:miter;stroke-opacity:1"
         d="m 355.62033,604.87422 c -2.91908,1.4496 -3.36912,5.32632 -3.11186,8.2598 3.82381,-0.45305 5.9512,-1.71508 8.07859,-5.25998 1.04686,-1.62086 -2.5051,-3.93841 -4.96673,-2.99982 z"
         id="path5789"
         inkscape:connector-curvature="0"
         sodipodi:nodetypes="cccc" />
      <path
         sodipodi:nodetypes="cccc"
         inkscape:connector-curvature="0"
         id="path5791"
         d="m 347.0489,584.15994 c -2.91908,1.4496 -3.36912,5.32632 -3.11186,8.2598 3.82381,-0.45305 5.9512,-1.71508 8.07859,-5.25998 1.04686,-1.62086 -2.5051,-3.93841 -4.96673,-2.99982 z"
         style="fill:#ffffff;fill-opacity:1;fill-rule:evenodd;stroke:none;stroke-width:1px;stroke-linecap:butt;stroke-linejoin:miter;stroke-opacity:1" />
      <path
         style="fill:#ffffff;fill-opacity:1;fill-rule:evenodd;stroke:none;stroke-width:1px;stroke-linecap:butt;stroke-linejoin:miter;stroke-opacity:1"
         d="m 472.76318,644.87423 c -2.91908,1.4496 -3.36912,5.32632 -3.11186,8.2598 3.82381,-0.45305 5.9512,-1.71508 8.07859,-5.25998 1.04686,-1.62086 -2.5051,-3.93841 -4.96673,-2.99982 z"
         id="path5793"
         inkscape:connector-curvature="0"
         sodipodi:nodetypes="cccc" />
      <path
         sodipodi:nodetypes="cccc"
         inkscape:connector-curvature="0"
         id="path5795"
         d="m 254.19176,609.15994 c -2.91908,1.4496 -3.36912,5.32632 -3.11186,8.2598 3.82381,-0.45305 5.9512,-1.71508 8.07859,-5.25998 1.04686,-1.62086 -2.5051,-3.93841 -4.96673,-2.99982 z"
         style="fill:#ffffff;fill-opacity:1;fill-rule:evenodd;stroke:none;stroke-width:1px;stroke-linecap:butt;stroke-linejoin:miter;stroke-opacity:1" />
      <path
         style="fill:#ffffff;fill-opacity:1;fill-rule:evenodd;stroke:none;stroke-width:1px;stroke-linecap:butt;stroke-linejoin:miter;stroke-opacity:1"
         d="m 238.47748,643.44566 c -2.91908,1.4496 -3.36912,5.32632 -3.11186,8.2598 3.82381,-0.45305 5.9512,-1.71508 8.07859,-5.25998 1.04686,-1.62086 -2.5051,-3.93841 -4.96673,-2.99982 z"
         id="path5797"
         inkscape:connector-curvature="0"
         sodipodi:nodetypes="cccc" />
      <path
         style="fill:#ffffff;fill-opacity:1;fill-rule:evenodd;stroke:none;stroke-width:1px;stroke-linecap:butt;stroke-linejoin:miter;stroke-opacity:1"
         d="m 395.95825,634.99679 c -2.91908,1.4496 -3.36912,5.32632 -3.11186,8.2598 3.82381,-0.45305 5.9512,-1.71508 8.07859,-5.25998 1.04686,-1.62086 -2.5051,-3.93841 -4.96673,-2.99982 z"
         id="path5799"
         inkscape:connector-curvature="0"
         sodipodi:nodetypes="cccc" />
      <path
         sodipodi:nodetypes="cccc"
         inkscape:connector-curvature="0"
         id="path5801"
         d="m 403.02932,607.21759 c -2.91908,1.4496 -3.36912,5.32632 -3.11186,8.2598 3.82381,-0.45305 5.9512,-1.71508 8.07859,-5.25998 1.04686,-1.62086 -2.5051,-3.93841 -4.96673,-2.99982 z"
         style="fill:#ffffff;fill-opacity:1;fill-rule:evenodd;stroke:none;stroke-width:1px;stroke-linecap:butt;stroke-linejoin:miter;stroke-opacity:1" />
      <path
         style="fill:#ffffff;fill-opacity:1;fill-rule:evenodd;stroke:none;stroke-width:1px;stroke-linecap:butt;stroke-linejoin:miter;stroke-opacity:1"
         d="m 438.38466,600.14652 c -2.91908,1.4496 -3.36912,5.32632 -3.11186,8.2598 3.82381,-0.45305 5.9512,-1.71508 8.07859,-5.25998 1.04686,-1.62086 -2.5051,-3.93841 -4.96673,-2.99982 z"
         id="path5803"
         inkscape:connector-curvature="0"
         sodipodi:nodetypes="cccc" />
      <path
         sodipodi:nodetypes="cccc"
         inkscape:connector-curvature="0"
         id="path5805"
         d="m 419.19176,637.01709 c -2.91908,1.4496 -3.36912,5.32632 -3.11186,8.2598 3.82381,-0.45305 5.9512,-1.71508 8.07859,-5.25998 1.04686,-1.62086 -2.5051,-3.93841 -4.96673,-2.99982 z"
         style="fill:#ffffff;fill-opacity:1;fill-rule:evenodd;stroke:none;stroke-width:1px;stroke-linecap:butt;stroke-linejoin:miter;stroke-opacity:1" />
      <path
         style="fill:#ffffff;fill-opacity:1;fill-rule:evenodd;stroke:none;stroke-width:1px;stroke-linecap:butt;stroke-linejoin:miter;stroke-opacity:1"
         d="m 442.76319,624.87423 c -2.91908,1.4496 -3.36912,5.32632 -3.11186,8.2598 3.82381,-0.45305 5.9512,-1.71508 8.07859,-5.25998 1.04686,-1.62086 -2.5051,-3.93841 -4.96673,-2.99982 z"
         id="path5807"
         inkscape:connector-curvature="0"
         sodipodi:nodetypes="cccc" />
      <path
         sodipodi:nodetypes="cccc"
         inkscape:connector-curvature="0"
         id="path5809"
         d="m 442.76319,659.15994 c -2.91908,1.4496 -3.36912,5.32632 -3.11186,8.2598 3.82381,-0.45305 5.9512,-1.71508 8.07859,-5.25998 1.04686,-1.62086 -2.5051,-3.93841 -4.96673,-2.99982 z"
         style="fill:#ffffff;fill-opacity:1;fill-rule:evenodd;stroke:none;stroke-width:1px;stroke-linecap:butt;stroke-linejoin:miter;stroke-opacity:1" />
      <path
         style="fill:#ffffff;fill-opacity:1;fill-rule:evenodd;stroke:none;stroke-width:1px;stroke-linecap:butt;stroke-linejoin:miter;stroke-opacity:1"
         d="m 497.76319,605.58851 c -2.91908,1.4496 -3.36912,5.32632 -3.11186,8.2598 3.82381,-0.45305 5.9512,-1.71508 8.07859,-5.25998 1.04686,-1.62086 -2.5051,-3.93841 -4.96673,-2.99982 z"
         id="path5811"
         inkscape:connector-curvature="0"
         sodipodi:nodetypes="cccc" />
      <path
         sodipodi:nodetypes="cccc"
         inkscape:connector-curvature="0"
         id="path5813"
         d="m 477.0489,593.44565 c -2.91908,1.4496 -3.36912,5.32632 -3.11186,8.2598 3.82381,-0.45305 5.9512,-1.71508 8.07859,-5.25998 1.04686,-1.62086 -2.5051,-3.93841 -4.96673,-2.99982 z"
         style="fill:#ffffff;fill-opacity:1;fill-rule:evenodd;stroke:none;stroke-width:1px;stroke-linecap:butt;stroke-linejoin:miter;stroke-opacity:1" />
      <path
         style="fill:#ffffff;fill-opacity:1;fill-rule:evenodd;stroke:none;stroke-width:1px;stroke-linecap:butt;stroke-linejoin:miter;stroke-opacity:1"
         d="m 457.0489,579.15994 c -2.91908,1.4496 -3.36912,5.32632 -3.11186,8.2598 3.82381,-0.45305 5.9512,-1.71508 8.07859,-5.25998 1.04686,-1.62086 -2.5051,-3.93841 -4.96673,-2.99982 z"
         id="path5815"
         inkscape:connector-curvature="0"
         sodipodi:nodetypes="cccc" />
      <path
         sodipodi:nodetypes="cccc"
         inkscape:connector-curvature="0"
         id="path5817"
         d="m 424.90604,582.73137 c -2.91908,1.4496 -3.36912,5.32632 -3.11186,8.2598 3.82381,-0.45305 5.9512,-1.71508 8.07859,-5.25998 1.04686,-1.62086 -2.5051,-3.93841 -4.96673,-2.99982 z"
         style="fill:#ffffff;fill-opacity:1;fill-rule:evenodd;stroke:none;stroke-width:1px;stroke-linecap:butt;stroke-linejoin:miter;stroke-opacity:1" />
      <path
         style="fill:#ffffff;fill-opacity:1;fill-rule:evenodd;stroke:none;stroke-width:1px;stroke-linecap:butt;stroke-linejoin:miter;stroke-opacity:1"
         d="m 375.62033,597.73137 c -2.91908,1.4496 -3.36912,5.32632 -3.11186,8.2598 3.82381,-0.45305 5.9512,-1.71508 8.07859,-5.25998 1.04686,-1.62086 -2.5051,-3.93841 -4.96673,-2.99982 z"
         id="path5819"
         inkscape:connector-curvature="0"
         sodipodi:nodetypes="cccc" />
      <path
         sodipodi:nodetypes="cccc"
         inkscape:connector-curvature="0"
         id="path5821"
         d="m 359.90605,632.01709 c -2.91908,1.4496 -3.36912,5.32632 -3.11186,8.2598 3.82381,-0.45305 5.9512,-1.71508 8.07859,-5.25998 1.04686,-1.62086 -2.5051,-3.93841 -4.96673,-2.99982 z"
         style="fill:#ffffff;fill-opacity:1;fill-rule:evenodd;stroke:none;stroke-width:1px;stroke-linecap:butt;stroke-linejoin:miter;stroke-opacity:1" />
      <path
         sodipodi:nodetypes="cccc"
         inkscape:connector-curvature="0"
         id="path5823"
         d="m 297.38682,606.42536 c -2.91908,1.4496 -3.36912,5.32632 -3.11186,8.2598 3.82381,-0.45305 5.9512,-1.71508 8.07859,-5.25998 1.04686,-1.62086 -2.5051,-3.93841 -4.96673,-2.99982 z"
         style="fill:#ffffff;fill-opacity:1;fill-rule:evenodd;stroke:none;stroke-width:1px;stroke-linecap:butt;stroke-linejoin:miter;stroke-opacity:1" />
      <path
         style="fill:#ffffff;fill-opacity:1;fill-rule:evenodd;stroke:none;stroke-width:1px;stroke-linecap:butt;stroke-linejoin:miter;stroke-opacity:1"
         d="m 304.45789,578.64616 c -2.91908,1.4496 -3.36912,5.32632 -3.11186,8.2598 3.82381,-0.45305 5.9512,-1.71508 8.07859,-5.25998 1.04686,-1.62086 -2.5051,-3.93841 -4.96673,-2.99982 z"
         id="path5825"
         inkscape:connector-curvature="0"
         sodipodi:nodetypes="cccc" />
      <path
         sodipodi:nodetypes="cccc"
         inkscape:connector-curvature="0"
         id="path5827"
         d="m 490.52752,631.57509 c -2.91908,1.4496 -3.36912,5.32632 -3.11186,8.2598 3.82381,-0.45305 5.9512,-1.71508 8.07859,-5.25998 1.04686,-1.62086 -2.5051,-3.93841 -4.96673,-2.99982 z"
         style="fill:#ffffff;fill-opacity:1;fill-rule:evenodd;stroke:none;stroke-width:1px;stroke-linecap:butt;stroke-linejoin:miter;stroke-opacity:1" />
      <path
         style="fill:#ffffff;fill-opacity:1;fill-rule:evenodd;stroke:none;stroke-width:1px;stroke-linecap:butt;stroke-linejoin:miter;stroke-opacity:1"
         d="m 297.76319,557.01709 c -2.91908,1.4496 -3.36912,5.32632 -3.11186,8.2598 3.82381,-0.45305 5.9512,-1.71508 8.07859,-5.25998 1.04686,-1.62086 -2.5051,-3.93841 -4.96673,-2.99982 z"
         id="path5829"
         inkscape:connector-curvature="0"
         sodipodi:nodetypes="cccc" />
      <path
         sodipodi:nodetypes="cccc"
         inkscape:connector-curvature="0"
         id="path5831"
         d="m 467.76319,615.58851 c -2.91908,1.4496 -3.36912,5.32632 -3.11186,8.2598 3.82381,-0.45305 5.9512,-1.71508 8.07859,-5.25998 1.04686,-1.62086 -2.5051,-3.93841 -4.96673,-2.99982 z"
         style="fill:#ffffff;fill-opacity:1;fill-rule:evenodd;stroke:none;stroke-width:1px;stroke-linecap:butt;stroke-linejoin:miter;stroke-opacity:1" />
      <path
         style="fill:#ffffff;fill-opacity:1;fill-rule:evenodd;stroke:none;stroke-width:1px;stroke-linecap:butt;stroke-linejoin:miter;stroke-opacity:1"
         d="m 344.19176,630.58851 c -2.91908,1.4496 -3.36912,5.32632 -3.11186,8.2598 3.82381,-0.45305 5.9512,-1.71508 8.07859,-5.25998 1.04686,-1.62086 -2.5051,-3.93841 -4.96673,-2.99982 z"
         id="path5833"
         inkscape:connector-curvature="0"
         sodipodi:nodetypes="cccc" />
      <path
         sodipodi:nodetypes="cccc"
         inkscape:connector-curvature="0"
         id="path5835"
         d="m 399.19176,577.01708 c -2.91908,1.4496 -3.36912,5.32632 -3.11186,8.2598 3.82381,-0.45305 5.9512,-1.71508 8.07859,-5.25998 1.04686,-1.62086 -2.5051,-3.93841 -4.96673,-2.99982 z"
         style="fill:#ffffff;fill-opacity:1;fill-rule:evenodd;stroke:none;stroke-width:1px;stroke-linecap:butt;stroke-linejoin:miter;stroke-opacity:1" />
      <path
         style="fill:#ffffff;fill-opacity:1;fill-rule:evenodd;stroke:none;stroke-width:1px;stroke-linecap:butt;stroke-linejoin:miter;stroke-opacity:1"
         d="m 378.47747,564.87422 c -2.91908,1.4496 -3.36912,5.32632 -3.11186,8.2598 3.82381,-0.45305 5.9512,-1.71508 8.07859,-5.25998 1.04686,-1.62086 -2.5051,-3.93841 -4.96673,-2.99982 z"
         id="path5837"
         inkscape:connector-curvature="0"
         sodipodi:nodetypes="cccc" />
      <path
         sodipodi:nodetypes="cccc"
         inkscape:connector-curvature="0"
         id="path5839"
         d="m 358.47747,550.58851 c -2.91908,1.4496 -3.36912,5.32632 -3.11186,8.2598 3.82381,-0.45305 5.9512,-1.71508 8.07859,-5.25998 1.04686,-1.62086 -2.5051,-3.93841 -4.96673,-2.99982 z"
         style="fill:#ffffff;fill-opacity:1;fill-rule:evenodd;stroke:none;stroke-width:1px;stroke-linecap:butt;stroke-linejoin:miter;stroke-opacity:1" />
      <path
         style="fill:#ffffff;fill-opacity:1;fill-rule:evenodd;stroke:none;stroke-width:1px;stroke-linecap:butt;stroke-linejoin:miter;stroke-opacity:1"
         d="m 326.33461,554.15994 c -2.91908,1.4496 -3.36912,5.32632 -3.11186,8.2598 3.82381,-0.45305 5.9512,-1.71508 8.07859,-5.25998 1.04686,-1.62086 -2.5051,-3.93841 -4.96673,-2.99982 z"
         id="path5841"
         inkscape:connector-curvature="0"
         sodipodi:nodetypes="cccc" />
      <path
         sodipodi:nodetypes="cccc"
         inkscape:connector-curvature="0"
         id="path5843"
         d="m 277.0489,569.15994 c -2.91908,1.4496 -3.36912,5.32632 -3.11186,8.2598 3.82381,-0.45305 5.9512,-1.71508 8.07859,-5.25998 1.04686,-1.62086 -2.5051,-3.93841 -4.96673,-2.99982 z"
         style="fill:#ffffff;fill-opacity:1;fill-rule:evenodd;stroke:none;stroke-width:1px;stroke-linecap:butt;stroke-linejoin:miter;stroke-opacity:1" />
      <path
         style="fill:#ffffff;fill-opacity:1;fill-rule:evenodd;stroke:none;stroke-width:1px;stroke-linecap:butt;stroke-linejoin:miter;stroke-opacity:1"
         d="m 149.19176,639.15995 c -2.91908,1.4496 -3.36912,5.32632 -3.11186,8.2598 3.82381,-0.45305 5.9512,-1.71508 8.07859,-5.25998 1.04686,-1.62086 -2.5051,-3.93841 -4.96673,-2.99982 z"
         id="path5845"
         inkscape:connector-curvature="0"
         sodipodi:nodetypes="cccc" />
    </g>
  </g>
</svg>
