<?xml version="1.0" encoding="UTF-8" standalone="no"?>
<!-- Created with Inkscape (http://www.inkscape.org/) -->

<svg
   xmlns:dc="http://purl.org/dc/elements/1.1/"
   xmlns:cc="http://creativecommons.org/ns#"
   xmlns:rdf="http://www.w3.org/1999/02/22-rdf-syntax-ns#"
   xmlns:svg="http://www.w3.org/2000/svg"
   xmlns="http://www.w3.org/2000/svg"
   xmlns:sodipodi="http://sodipodi.sourceforge.net/DTD/sodipodi-0.dtd"
   xmlns:inkscape="http://www.inkscape.org/namespaces/inkscape"
   width="400"
   height="320"
   viewBox="0 0 399.99998 320.00001"
   id="svg4158"
   version="1.1"
   inkscape:version="0.91 r13725"
   sodipodi:docname="mountains2.svg">
  <defs
     id="defs4160" />
  <sodipodi:namedview
     id="base"
     pagecolor="#ffffff"
     bordercolor="#666666"
     borderopacity="1.0"
     inkscape:pageopacity="0.0"
     inkscape:pageshadow="2"
     inkscape:zoom="1.979899"
     inkscape:cx="174.11224"
     inkscape:cy="148.01918"
     inkscape:document-units="px"
     inkscape:current-layer="layer1"
     showgrid="false"
     inkscape:snap-bbox="true"
     inkscape:object-paths="true"
     inkscape:snap-page="true"
     inkscape:window-width="1920"
     inkscape:window-height="1057"
     inkscape:window-x="-8"
     inkscape:window-y="-8"
     inkscape:window-maximized="1"
     units="px"
     inkscape:snap-smooth-nodes="true" />
  <metadata
     id="metadata4163">
    <rdf:RDF>
      <cc:Work
         rdf:about="">
        <dc:format>image/svg+xml</dc:format>
        <dc:type
           rdf:resource="http://purl.org/dc/dcmitype/StillImage" />
        <dc:title></dc:title>
      </cc:Work>
    </rdf:RDF>
  </metadata>
  <g
     inkscape:label="Layer 1"
     inkscape:groupmode="layer"
     id="layer1"
     transform="translate(0,-732.36216)">
    <path
       sodipodi:nodetypes="ccccccccccccc"
       style="fill:#80873b;fill-opacity:1;fill-rule:evenodd;stroke:none;stroke-width:1px;stroke-linecap:butt;stroke-linejoin:miter;stroke-opacity:1"
       d="M -8.2101749e-6,744.82736 17.11104,737.8603 l 36.459588,5.79296 19.090995,9.49841 70.199837,-2.43187 24.27241,-10.38276 31.92919,0.3661 30.69824,15.36583 91.99298,-11.15781 79.36282,6.74055 0,300.71049 -401.1171082101749,0 z"
       id="path4195"
       inkscape:connector-curvature="0" />
    <path
       inkscape:connector-curvature="0"
       id="path4191"
       d="M -8.2101749e-6,787.22803 39.839472,783.39874 l 45.550961,-18.08405 59.497097,-7.92244 54.54247,1.38694 29.82825,1.32563 46.07133,9.89275 30.19316,-2.41007 43.00058,-13.8161 52.59378,28.45409 0,270.13671 -401.1171082101749,0 z"
       style="fill:#a7873a;fill-opacity:1;fill-rule:evenodd;stroke:none;stroke-width:1px;stroke-linecap:butt;stroke-linejoin:miter;stroke-opacity:1"
       sodipodi:nodetypes="ccccccccccccc" />
    <path
       style="fill:#cc8349;fill-opacity:1;fill-rule:evenodd;stroke:none;stroke-width:1px;stroke-linecap:butt;stroke-linejoin:miter;stroke-opacity:1"
       d="M -8.2101749e-6,826.742 58.527294,804.03809 l 48.076346,1.53096 60.50725,-28.96487 30.80388,17.97393 48.51607,0.94601 22.33275,14.18994 55.44697,-3.31098 35.42444,17.50093 41.4821,-1.419 0,229.87719 -401.1171082101749,0 z"
       id="path4706"
       inkscape:connector-curvature="0"
       sodipodi:nodetypes="ccccccccccccc" />
    <path
       style="fill:#ec7d67;fill-rule:evenodd;stroke:none;stroke-width:1px;stroke-linecap:butt;stroke-linejoin:miter;stroke-opacity:1;fill-opacity:1"
       d="M 1.8743196e-5,842.84803 44.665582,835.124 l 51.59646,3.86201 70.848878,-28.96509 15.40191,5.79302 73.15916,12.06879 33.88422,-8.68953 66.52108,-1.79387 22.75248,1.12373 22.2873,-9.95039 0,243.78953 -401.117051256803,0 z"
       id="path4708"
       inkscape:connector-curvature="0" />
    <path
       style="fill:#ff7b91;fill-opacity:1;fill-rule:evenodd;stroke:none;stroke-width:1px;stroke-linecap:butt;stroke-linejoin:miter;stroke-opacity:1"
       d="M -8.2101749e-6,887.41364 65.596517,867.67163 l 59.929213,1.9656 41.58516,-24.8043 60.06754,1.24022 65.4582,16.1228 36.1945,19.84343 55.44695,-3.30724 16.83902,2.06703 0,171.56303 -401.1171082101737,0 z"
       id="path4710"
       inkscape:connector-curvature="0" />
    <path
       style="fill:#ff83c3;fill-opacity:1;fill-rule:evenodd;stroke:none;stroke-width:1px;stroke-linecap:butt;stroke-linejoin:miter;stroke-opacity:1"
       d="M -1.0905512e-5,909.95074 29.263647,912.24155 l 91.641463,-9.54501 33.11416,-10.3086 65.45815,4.96341 36.19455,15.272 73.15916,-17.5628 41.58517,-12.21761 30.7008,0.3818 0,169.13746 -401.117110905512,0 z"
       id="path4712"
       inkscape:connector-curvature="0" />
    <path
       style="fill:#f796f8;fill-opacity:1;fill-rule:evenodd;stroke:none;stroke-width:1px;stroke-linecap:butt;stroke-linejoin:miter;stroke-opacity:1"
       d="M -5.5148376e-6,954.15166 117.05464,948.05362 l 36.19452,10.27039 152.47908,1.60474 32.34405,-10.59133 43.12539,-5.77709 19.91942,1.9257 0,106.87617 -401.1171055148375,0 0,-97.88959"
       id="path4714"
       inkscape:connector-curvature="0" />
  </g>
</svg>
