<?xml version="1.0" encoding="UTF-8" standalone="no"?>
<svg
   xmlns:dc="http://purl.org/dc/elements/1.1/"
   xmlns:cc="http://creativecommons.org/ns#"
   xmlns:rdf="http://www.w3.org/1999/02/22-rdf-syntax-ns#"
   xmlns:svg="http://www.w3.org/2000/svg"
   xmlns="http://www.w3.org/2000/svg"
   xmlns:sodipodi="http://sodipodi.sourceforge.net/DTD/sodipodi-0.dtd"
   xmlns:inkscape="http://www.inkscape.org/namespaces/inkscape"
   version="1.1"
   id="svg5493"
   viewBox="0 0 1999.9999 1600"
   height="1600"
   width="2000"
   inkscape:version="0.91 r13725"
   sodipodi:docname="mve_head.svg">
  <sodipodi:namedview
     pagecolor="#ffffff"
     bordercolor="#666666"
     borderopacity="1"
     objecttolerance="10"
     gridtolerance="10"
     guidetolerance="10"
     inkscape:pageopacity="0"
     inkscape:pageshadow="2"
     inkscape:window-width="1920"
     inkscape:window-height="1057"
     id="namedview39"
     showgrid="false"
     inkscape:zoom="0.27049912"
     inkscape:cx="-200.5949"
     inkscape:cy="168.49177"
     inkscape:window-x="-8"
     inkscape:window-y="-8"
     inkscape:window-maximized="1"
     inkscape:current-layer="svg5493"
     inkscape:object-paths="true"
     fit-margin-top="0"
     fit-margin-left="0"
     fit-margin-right="0"
     fit-margin-bottom="0"
     units="px"
     inkscape:snap-page="true"
     inkscape:snap-smooth-nodes="true"
     inkscape:object-nodes="true"
     inkscape:snap-bbox="true" />
  <defs
     id="defs5495" />
  <metadata
     id="metadata5498">
    <rdf:RDF>
      <cc:Work
         rdf:about="">
        <dc:format>image/svg+xml</dc:format>
        <dc:type
           rdf:resource="http://purl.org/dc/dcmitype/StillImage" />
        <dc:title></dc:title>
      </cc:Work>
    </rdf:RDF>
  </metadata>
  <path
     style="opacity:1;fill:#73819a;fill-opacity:1;stroke:none;stroke-width:1;stroke-miterlimit:4;stroke-dasharray:none;stroke-opacity:1"
     d="M 2.999939,0 1996.9999,0 c 1.662,0 3,1.338 3,3 l 0,1594 c 0,1.662 -1.338,3 -3,3 L 2.999939,1600 c -1.662,0 -3.000000035156,-1.338 -3.000000035156,-3 l 0,-1594 C -6.1035156e-5,1.338 1.337939,0 2.999939,0 Z"
     id="rect4434" />
  <g
     inkscape:groupmode="layer"
     id="layer1"
     inkscape:label="background"
     transform="translate(0,491.7875)" />
  <g
     id="g4388"
     transform="translate(53.604611,-200)"
     style="stroke-width:1;stroke-miterlimit:4;stroke-dasharray:none;stroke:#ffffff;stroke-opacity:1">
    <path
       sodipodi:nodetypes="cccccccc"
       inkscape:connector-curvature="0"
       id="path4838"
       d="m 337.53891,1089.7368 4.76014,45.9007 c 25.8115,46.9371 73.8453,79.0592 121.9759,111.1168 31.8097,20.69 42.5558,42.1179 52.8483,37.4179 45.3534,-22.3437 47.6191,-92.8571 71.4286,-139.2857 l 0.26598,-55.9877 c -32.7447,69.6889 -37.57669,90.5996 -119.34396,97.9494 -57.29348,1.4331 -61.33363,-10.5707 -131.93496,-97.1114 z"
       style="fill:none;fill-opacity:1;fill-rule:evenodd;stroke:#ffffff;stroke-width:1;stroke-linecap:butt;stroke-linejoin:miter;stroke-opacity:1;stroke-miterlimit:4;stroke-dasharray:none" />
    <path
       inkscape:connector-curvature="0"
       id="path4832"
       d="m 272.30205,851.95232 c 3.7551,11.1651 8.1247,19.2575 11.25,33.5715 1.1402,21.7826 8.2775,41.5662 13.0357,62.1428 5.7067,46.51 14.8612,95.02768 30.1786,120.53568 20.9989,36.0729 48.8058,56.2805 73.6506,90.4185 13.8811,18.1937 38.4719,23.3344 79.2065,22.0815 46.5765,-1.3353 52.3572,-12.7835 73.2143,-31.6071 9.3254,-8.7897 15.2976,-23.2738 27.1428,-47.5 7.3871,-16.8117 14.052,-27.1489 22.3215,-39.1071 11.3478,-18.0116 21.9345,-57.5893 23.7499,-71.51788 3.082,-19.9879 3.3334,-43.2738 3.9286,-67.0536 0.8257,-12.6168 3.0394,-22.2691 4.2858,-32.8571 2.2431,-20.6513 5.7227,-36.4665 6.7857,-57.8572 1.4358,-24.6852 -0.7041,-43.113 -1.0715,-64.6428 l -1.7857,-28.5714 8.5715,11.0714 -9.6429,-32.5 c -0.3337,-5.9567 -0.8945,-11.6408 1.0714,-20.3571 1.0808,-1.2626 2.8263,-2.3589 7.6786,-2.6786 -5.9739,-11.5262 -15.0516,-17.9842 -23.3929,-27.1429 5.3258,-11.7316 14.9609,-18.61541 23.9286,-26.25001 -6.022,1.2429 -13.2056,4.0815 -21.0714,7.8572 6.6094,-10.8334 9.1037,-21.6667 13.5714,-32.5 -4.9179,9.1447 -11.1828,16.0445 -17.5,22.8571 7.3035,-12.4055 10.2615,-25.3542 13.9286,-38.2143 -6.2493,10.8936 -9.9462,24.3396 -21.4286,30 -1.3151,-15.8838 -8.7364,-29.0536 -13.9286,-43.2143 -0.2993,4.1343 -1.7259,6.5778 -3.9285,7.8572 -1.3941,-16.2689 -7.7685,-26.1344 -12.1429,-38.5714 -0.8883,7.7406 3.4433,18.3284 -2.6786,23.2142 -3.4426,-12.1062 -8.4167,-25.2845 -16.6071,-40.7142 1.6872,3.8177 2.1222,7.1345 1.4286,10 -5.5976,-10.946 -13.0833,-16.8574 -20,-24.2858 0.2179,2.0351 2.0945,4.544 -0.7143,5.7143 -6.4312,-6.6624 -14.3379,-13.0355 -23.0357,-16.0714 l -3.75,3.9286 c -8.9374,-7.9257 -17.815,-15.9626 -30,-17.8572 -8.6169,-14.745 -19.4376,-24.3851 -27.1429,-25.7142 -0.848,5.5484 -2.6198,11.3607 -6.7857,17.8571 -4.5495,-2.4743 -8.453,-5.5946 -15.7143,-5.3571 1.6935,4.2857 3.5756,8.5714 2.5,12.8571 -3.7951,-3.0718 -8.9515,-2.7403 -14.6428,-1.0714 l 2.1428,3.5714 c -7.5839,-0.5876 -14.8749,0.8753 -21.7857,5 4.7584,3.7644 4.4482,6.8953 3.9286,10 -6.0714,-3.3222 -12.1429,-3.5472 -18.2143,-2.8571 -0.182,2.4997 0.2988,5.1961 -5.3572,6.0714 -3.3872,0.2431 -8.5689,3.6266 -14.6428,8.5714 -0.2684,11.2227 -13.5544,10.7297 -20.3572,16.0714 -3.9603,-1.7968 -4.915,-4.7959 -2.1428,-9.2857 -10.5939,2.3855 -18.8256,12.645 -27.5,21.4286 -2.1396,-0.7209 -5.0385,0.077 -4.6429,-5.7143 -6.0654,2.6079 -10.0304,6.5286 -10.7143,12.5 -6.8156,-0.8587 -12.1684,-2.9713 -14.2857,-7.8571 -14.9329,13.5553 -8.27,25.9741 -11.7857,38.9285 -5.5027,-2.3914 -9.293,-7.1803 -11.4286,-14.2857 -12.2251,17.2701 0.1776,34.524 0.7143,51.7857 -5.5617,-3.5876 -8.0211,-12.3458 -11.7857,-18.9285 -2.4935,14.8181 0.8811,26.7023 6.4286,37.5 -7.3689,6.07261 -12.8235,-5.8346 -21.4645,-12.4821 6.2216,11.3764 -11.7338,25.92041 7.8931,30.69631 -4.0019,1.6409 -7.8251,4.8026 -12.5,0.7143 -0.2859,9.4913 8.0105,11.473 12.5,16.7857 -5.5626,0.9999 -11.7112,0.437 -19.2858,-3.9285 4.7759,7.6124 9.5655,15.1009 15,16.7857 -3.7281,5.1376 -8.5375,7.3921 -14.2857,7.1428 6.1991,4.4937 13.169,6.2896 20.7143,6.0715 -4.3241,15.242 -12.8849,17.7736 -20.3571,23.5714 3.246,0.011 7.1118,-0.2257 7.1428,1.0714 2.0573,4.3062 5.2264,8.6123 0.8369,12.9184 3.9393,-1.2306 8.2747,-4.442 10.9488,0.653 3.4501,10.0158 0.5171,16.384 -0.3571,23.9286 l 4.6429,-6.7857 c 3.6808,5.5405 8.0426,10.7406 7.8571,18.2143 0.3638,11.481 1.1059,19.1795 2.1429,23.9286 1.634,11.9324 3.7014,14.9703 6.5944,21.2373 0.8599,10.3204 -0.6868,12.2177 -1.0587,18.2269 z"
       style="fill:none;fill-opacity:1;fill-rule:evenodd;stroke:#ffffff;stroke-width:1;stroke-linecap:butt;stroke-linejoin:miter;stroke-opacity:1;stroke-miterlimit:4;stroke-dasharray:none" />
    <path
       inkscape:connector-curvature="0"
       id="path4807"
       d="m 387.48055,1067.8452 c -3.8506,31.4781 11.4873,42.3229 18.9286,46.25 7.3766,3.929 29.6207,33.5778 61.4286,25.8929 6.6384,-2.6607 7.8683,-9.143 5,-17.5 -5.9969,-13.5928 -38.427,-16.5042 -38.088,-41.9411 8.8357,8.4311 77.1385,6.5956 79.4336,2.0636 5.5785,10.288 -21.3736,33.4847 -25.1337,37.6046 -3.6721,4.2449 -3.3063,19.9213 3.4309,19.7729 14.4446,0.2383 24.9505,-5.2451 35,-11.7858 9.1271,-6.367 16.9592,-10.9369 23.2143,-28.5714 3.9665,-11.1867 4.9159,-20.5757 6.7857,-40 2.1051,-22.8379 -1.6478,-49.5035 -10,-51.4286 -28.2894,-4.8067 -43.8877,-1.8393 -49.9802,-1.9119 -6.9909,-0.2724 -16.8323,-4.6022 -18.0554,-9.65058 -1.0224,-4.2946 -1.2161,-10.2464 -1.6965,-15.625 -2.1395,0.7406 -4.1838,0.5285 -6.2054,0.089 1.146,6.2579 0.7385,12.1365 0.9375,16.0268 -1.0639,4.35408 -1.5592,8.81478 -10,11.78568 -21.0714,3.4249 -57.8571,4.6088 -63.2142,12.5 -7.8747,15.1813 -9.4643,30.5953 -11.7858,46.4286 z"
       style="fill:none;fill-opacity:1;fill-rule:evenodd;stroke:#ffffff;stroke-width:1;stroke-linecap:butt;stroke-linejoin:miter;stroke-opacity:1;stroke-miterlimit:4;stroke-dasharray:none" />
    <path
       inkscape:connector-curvature="0"
       id="path4799"
       d="m 344.98055,672.13092 c 10.2648,-1.2257 32.7432,-13.374 36.4286,-12.8571 36.386,7.2251 113.215,1.4022 167.8572,-1.0714 14.267,-0.4836 43.869,39.1071 42.5,64.2857 -0.9485,25.1518 8.4524,43.5714 12.1428,65.3571 5.324,25.5439 14.3155,41.4583 15.7143,55.3571 2.9153,23.7688 5.0984,64.477 4.2857,67.5 -2.1252,8.1436 -4.2172,13.8818 -5,18.9286 -0.5708,4.7424 1.1177,57.1222 -1.0714,60 -6.4249,7.2896 -24.5927,12.63718 -25.7143,15.35718 -6.7311,17.3202 -20.4061,39.6959 -24.6429,37.8571 -5.9531,-3.1533 -10.1063,5.3935 0.013,-44.30888 1.4449,-6.2334 -36.842,-26.7288 -54.5843,-39.9353 -2.0519,0.097 -8.0187,0.7044 -9.7141,1.3871 -7.7981,8.7375 -13.1015,18.7155 -27.1428,21.4285 -8.7063,0.9297 -20.0913,-9.7462 -32.8256,-16.0299 -5.7634,-1.8108 -11.4795,-4.6345 -14.6861,0.1362 -19.6135,12.9219 -34.4216,25.5908 -44.9883,38.03658 -8.2886,12.5448 6.2433,65.9457 -1.25,65.1786 -12.2428,0.5262 -21.1905,-20.8334 -31.6072,-31.25 -9.4557,-8.7929 -22.8756,-9.4356 -27.3214,-19.1072 -12.1228,-30.49168 -16.1725,-78.36278 -21.6071,-98.03568 -3.3357,-11.5085 -3.5318,-52.5295 -3.2143,-59.2857 0.1689,-7.2769 6.4533,-32.9069 6.7857,-38.75 0.1194,-29.4032 5.6237,-42.6655 1.7857,-88.3929 -0.801,-14.1101 21.7064,-59.5156 37.8571,-61.7857 z"
       style="fill:none;fill-opacity:1;fill-rule:evenodd;stroke:#ffffff;stroke-width:1;stroke-linecap:butt;stroke-linejoin:miter;stroke-opacity:1;stroke-miterlimit:4;stroke-dasharray:none" />
    <path
       inkscape:connector-curvature="0"
       id="path4766"
       d="m 340.69485,868.02382 c 11.5666,-25.0622 52.2082,-35.4997 84.1072,-15.5357"
       style="fill:none;fill-opacity:1;fill-rule:evenodd;stroke:#ffffff;stroke-width:1;stroke-linecap:butt;stroke-linejoin:miter;stroke-opacity:1;stroke-miterlimit:4;stroke-dasharray:none" />
    <path
       inkscape:connector-curvature="0"
       id="path4834"
       d="m 272.57915,852.95502 c -5.343,1.3514 -10.8564,6.6382 -12.8166,13.852 -7.3386,20.4221 19.0163,64.0904 28.0317,92.429 1.7875,4.1235 0.8443,16.8279 3.8883,21.6053 1.7652,2.6359 6.4544,11.8372 11.6107,10.9489 -3.8564,-23.0814 -6.091,-49.594 -14.0764,-73.7692 -6.4538,-31.9433 -5.437,-45.8609 -16.6377,-65.066 z"
       style="fill:none;fill-opacity:1;fill-rule:evenodd;stroke:#ffffff;stroke-width:1;stroke-linecap:butt;stroke-linejoin:miter;stroke-opacity:1;stroke-miterlimit:4;stroke-dasharray:none" />
    <path
       inkscape:connector-curvature="0"
       id="path4768"
       d="m 418.19485,859.27382 c 4.0163,1.9173 7.0343,3.1982 6.4286,6.9643 -3.75,3.9384 -6.25,1.4054 -10,1.0714 -31.7429,10.8314 -45.2822,4.3693 -58.6608,-2.5893 8.1643,-13.3536 36.9668,-26.8086 62.2322,-5.4464 z"
       style="fill:none;fill-opacity:1;fill-rule:evenodd;stroke:#ffffff;stroke-width:1;stroke-linecap:butt;stroke-linejoin:miter;stroke-opacity:1;stroke-miterlimit:4;stroke-dasharray:none" />
    <path
       inkscape:connector-curvature="0"
       id="path4836"
       d="m 641.49845,820.79162 c 6.0112,2.3598 11.0691,5.383 12.7679,10.625 3.065,5.4624 3.7381,31.1442 2.3214,34.6429 -6.8858,19.0178 -5.7109,31.2802 -12.8572,54.1071 -1.388,14.2109 -1.8181,11.1788 -2.6785,15.8929 -0.021,6.4792 4.4943,7.5529 -0.5357,20 -2.4672,5.9952 -7.146,9.3334 -12.0312,11.6071 -1.2371,-41.3281 10.7057,-95.5892 13.0133,-146.875 z"
       style="fill:none;fill-opacity:1;fill-rule:evenodd;stroke:#ffffff;stroke-width:1;stroke-linecap:butt;stroke-linejoin:miter;stroke-opacity:1;stroke-miterlimit:4;stroke-dasharray:none" />
    <path
       inkscape:connector-curvature="0"
       id="path4770"
       d="m 369.35555,853.55952 c -1.6055,12.8765 4.8678,15.0278 9.8215,19.1964 3.1373,0.4915 7.9249,0.4138 13.2813,-0.1785 7.6904,-6.5243 12.7065,-13.2992 6.7187,-23.1251 -8.667,-1.7721 -17.6413,-2.7865 -29.8215,4.1072 z"
       style="fill:none;fill-opacity:1;fill-rule:evenodd;stroke:#ffffff;stroke-width:1;stroke-linecap:butt;stroke-linejoin:miter;stroke-opacity:1;stroke-miterlimit:4;stroke-dasharray:none" />
    <path
       inkscape:connector-curvature="0"
       id="path4772"
       d="m 419.80205,934.09522 c -7.6731,17.0544 -3.7436,26.9263 8.5714,31.6071 1.97,-2.5168 3.0838,-1.86 4.1071,-2.8571 16.6814,0.1292 28.6672,19.052 43.734,18.5092 14.0304,-1.9235 22.7,-17.2269 25.9089,-20.2949 0.4457,-2.0584 8.109,-2.1022 10.7143,-2.5 18.1254,-9.0609 7.7995,-22.5495 6.6071,-30.4464 -6.8134,-9.1484 -12.1075,-6.4363 -14.1964,-2.5893"
       style="fill:none;fill-opacity:1;fill-rule:evenodd;stroke:#ffffff;stroke-width:1;stroke-linecap:butt;stroke-linejoin:miter;stroke-opacity:1;stroke-miterlimit:4;stroke-dasharray:none" />
    <path
       inkscape:connector-curvature="0"
       id="path4774"
       d="m 506.40915,930.70232 c 0.051,4.0706 3.3629,4.9745 4.1333,4.3426 0.5986,-0.5023 1.0028,-1.2843 -0.2047,-3.4497 -0.7524,-1.1442 -1.6717,-3.382 -3.125,-2.5 -0.3239,0.3675 -0.7175,0.526 -0.8036,1.6071 z"
       style="fill:none;fill-opacity:1;fill-rule:evenodd;stroke:#ffffff;stroke-width:1;stroke-linecap:butt;stroke-linejoin:miter;stroke-opacity:1;stroke-miterlimit:4;stroke-dasharray:none" />
    <path
       inkscape:connector-curvature="0"
       id="path4776"
       d="m 489.98055,892.48812 c 3.8557,14.2372 6.9409,30.4774 15.3572,32.8571"
       style="fill:none;fill-opacity:1;fill-rule:evenodd;stroke:#ffffff;stroke-width:1;stroke-linecap:butt;stroke-linejoin:miter;stroke-opacity:1;stroke-miterlimit:4;stroke-dasharray:none" />
    <path
       inkscape:connector-curvature="0"
       id="path4766-3"
       d="m 582.10355,849.51242 c -11.5666,-24.6834 -68.1181,-28.3024 -86.5063,-0.1309"
       style="fill:none;fill-opacity:1;fill-rule:evenodd;stroke:#ffffff;stroke-width:1;stroke-linecap:butt;stroke-linejoin:miter;stroke-opacity:1;stroke-miterlimit:4;stroke-dasharray:none" />
    <path
       inkscape:connector-curvature="0"
       id="path4768-1"
       d="m 504.35105,851.11642 c -4.0163,1.9173 -6.2767,3.4507 -5.671,7.2169 3.75,3.9384 6.1237,-0.1099 9.8737,-0.4438 41.6074,6.6579 44.6193,-3.7436 56.9404,-11.0651 -8.4642,-13.2747 -42.3174,-17.3227 -61.1431,4.292 z"
       style="fill:none;fill-opacity:1;fill-rule:evenodd;stroke:#ffffff;stroke-width:1;stroke-linecap:butt;stroke-linejoin:miter;stroke-opacity:1;stroke-miterlimit:4;stroke-dasharray:none" />
    <path
       inkscape:connector-curvature="0"
       id="path4770-3"
       d="m 550.47555,837.32092 c 1.6055,12.8765 -0.764,17.0482 -5.7177,21.2167 -5.6713,1.3872 -15.5733,1.8461 -18.8372,1.1789 -7.6904,-6.5243 -9.8023,-10.0793 -6.0242,-19.9052 1.9747,-1.6459 17.3888,-6.1958 30.5791,-2.4904 z"
       style="fill:none;fill-opacity:1;fill-rule:evenodd;stroke:#ffffff;stroke-width:1;stroke-linecap:butt;stroke-linejoin:miter;stroke-opacity:1;stroke-miterlimit:4;stroke-dasharray:none" />
    <path
       inkscape:connector-curvature="0"
       id="path4801"
       d="m 322.15505,851.48412 c 4.1196,0.6552 20.5173,-14.1693 32.1113,-18.6389 20.2343,-8.9816 68.4485,4.3361 73.3928,2.1429 2.7383,-1.4896 3.5648,-10.7488 -14.0205,-21.6124 -26.8969,-4.917 -65.3158,-6.6851 -75.118,-0.4506 -14.9097,12.7402 -22.6795,20.1681 -24.6511,31.8395 -0.2055,2.1767 3.4241,5.8057 8.2855,6.7195 z"
       style="fill:none;fill-opacity:1;fill-rule:evenodd;stroke:#ffffff;stroke-width:1;stroke-linecap:butt;stroke-linejoin:miter;stroke-opacity:1;stroke-miterlimit:4;stroke-dasharray:none" />
    <path
       inkscape:connector-curvature="0"
       id="path4803"
       d="m 486.20545,832.44472 c -2.1006,-1.8839 0.4027,-9.3014 7.2114,-19.6697 4.4047,-6.4286 46.8965,-24.0992 73.7066,-21.5369 11.6618,0.3503 19.8593,9.9387 29.9783,14.403 4.6258,2.3758 9.2536,32.26 3.2106,29.0078 -12.9419,-7.2281 -17.6664,-15.6581 -37.4746,-19.3037 -41.938,-1.6869 -73.0761,20.1562 -76.6323,17.0995 z"
       style="fill:none;fill-opacity:1;fill-rule:evenodd;stroke:#ffffff;stroke-width:1;stroke-linecap:butt;stroke-linejoin:miter;stroke-opacity:1;stroke-miterlimit:4;stroke-dasharray:none" />
    <path
       inkscape:connector-curvature="0"
       id="path4805"
       d="m 443.95055,834.14272 c 0.6298,-1.5259 1.8528,-3.367 5.2322,-2.6161 2.3661,0.5257 5.3994,2.299 3.3296,5.7078 -1.1433,1.8828 -4.1467,3.2316 -6.1835,2.3783 -1.8338,-0.7683 -3.1223,-3.6676 -2.3783,-5.47 z"
       style="fill:none;fill-opacity:1;fill-rule:evenodd;stroke:#ffffff;stroke-width:1;stroke-linecap:butt;stroke-linejoin:miter;stroke-miterlimit:4;stroke-dasharray:none;stroke-opacity:1" />
    <path
       inkscape:connector-curvature="0"
       id="path4809"
       d="m 401.72675,1029.8147 c 0.3303,12.8713 10.1563,26.3256 22.8967,35.8876 18.9217,12.6522 20.2185,20.6113 51.7857,20 29.4184,-1.6596 49.1225,-13.3277 53.2143,-22.8571 4.0432,-9.552 12.0166,-29.1087 15.4364,-52.565 -5.1848,9.1961 -10.0385,17.9919 -19.2424,21.8291 -18.2237,11.0156 -42.0014,21.9014 -47.0921,22.435 -7.4496,1.1661 -38.3511,-3.989 -50.1696,-11.0894 -9.8503,-5.93 -18.1386,-10.1878 -26.829,-13.6402 z"
       style="fill:none;fill-opacity:1;fill-rule:evenodd;stroke:#ffffff;stroke-width:1;stroke-linecap:butt;stroke-linejoin:miter;stroke-opacity:1;stroke-miterlimit:4;stroke-dasharray:none" />
    <path
       inkscape:connector-curvature="0"
       id="path4848"
       d="m 472.77845,1049.7709 c 3.339,0.9579 15.5982,1.8263 20.3294,-1.0102 1.939,-1.4043 1.8586,-11.8773 1.3889,-20.8344 -0.4077,-2.4148 -1.4452,-4.5525 -4.8058,-5.6681 l -13.2583,3.5356 c -2.9033,1.9024 -4.4935,5.368 -5.2956,8.9511 0.5471,5.0086 0.4182,14.5807 1.6414,15.026 z"
       style="fill:none;fill-opacity:1;fill-rule:evenodd;stroke:#ffffff;stroke-width:1;stroke-linecap:butt;stroke-linejoin:miter;stroke-opacity:1;stroke-miterlimit:4;stroke-dasharray:none" />
    <path
       inkscape:connector-curvature="0"
       id="path4811"
       d="m 400.02015,1027.5747 c 30.3362,-6.1365 66.4523,-3.5461 72.8176,-1.8724 5.4067,1.7118 38.0784,-9.7925 70.9324,-15.6403 -13.1082,-1.8303 -33.9666,-2.559 -49.2947,-1.8993 -8.3812,0.8769 -13.0508,5.1023 -15.9234,5.3968 -5.8333,-0.2717 -13.3391,-3.1883 -18.6364,-1.4465 -17.1236,3.885 -49.3776,5.5832 -59.8955,15.4617 z"
       style="fill:none;fill-opacity:1;fill-rule:evenodd;stroke:#ffffff;stroke-width:1;stroke-linecap:butt;stroke-linejoin:miter;stroke-opacity:1;stroke-miterlimit:4;stroke-dasharray:none" />
    <path
       inkscape:connector-curvature="0"
       id="path4813"
       d="m 411.05205,939.98812 c -12.5234,17.127 -23.4675,34.4295 -27.5,52.5"
       style="fill:none;fill-opacity:1;fill-rule:evenodd;stroke:#ffffff;stroke-width:1;stroke-linecap:butt;stroke-linejoin:miter;stroke-opacity:1;stroke-miterlimit:4;stroke-dasharray:none" />
    <path
       inkscape:connector-curvature="0"
       id="path4815"
       d="m 526.76635,929.27382 c 14.8965,16.0041 30.7275,31.5409 36.4285,52.1428"
       style="fill:none;fill-opacity:1;fill-rule:evenodd;stroke:#ffffff;stroke-width:1;stroke-linecap:butt;stroke-linejoin:miter;stroke-opacity:1;stroke-miterlimit:4;stroke-dasharray:none" />
    <path
       inkscape:connector-curvature="0"
       id="path4840"
       d="m 416.24145,1027.8001 c -0.255,1.4107 0.7892,6.4081 1.8941,7.9549 1.4507,1.3496 2.9456,0.8113 3.504,0.5051 0.2759,-1.7126 -0.4334,-5.1245 -1.389,-7.5762 -1.389,-0.2574 -2.6201,-0.7104 -4.0091,-0.8838 z"
       style="fill:none;fill-opacity:1;fill-rule:evenodd;stroke:#ffffff;stroke-width:1;stroke-linecap:butt;stroke-linejoin:miter;stroke-opacity:1;stroke-miterlimit:4;stroke-dasharray:none" />
    <path
       inkscape:connector-curvature="0"
       id="path4842"
       d="m 420.62935,1028.4314 c 0.7917,3.916 1.1474,9.0672 2.3991,11.6799 1.2592,2.1328 3.7929,2.7179 6.1872,3.4724 1.349,-0.2588 2.7383,-0.6389 4.4194,-1.894 -0.1627,-3.5458 0.043,-7.755 -0.5051,-10.6067 -2.1466,-1.5888 -4.7987,-4.7131 -6.4397,-4.7666 -1.8926,-0.03 -4.4543,0.892 -6.0609,2.115 z"
       style="fill:none;fill-opacity:1;fill-rule:evenodd;stroke:#ffffff;stroke-width:1;stroke-linecap:butt;stroke-linejoin:miter;stroke-opacity:1;stroke-miterlimit:4;stroke-dasharray:none" />
    <path
       inkscape:connector-curvature="0"
       id="path4844"
       d="m 434.07695,1027.1687 c -0.974,0.6945 -0.2107,11.6483 -0.5681,14.7735 1.6159,1.9827 3.3803,3.7854 6.8185,4.9245 1.3836,0.4971 4.6975,0.065 7.3236,-6.4397 0.1466,-0.7926 0.6208,-3.347 -0.3788,-6.061 -1.3878,-2.8638 -6.4549,-6.355 -7.8287,-6.9448 -1.8735,-0.5719 -3.7084,-1.2145 -5.3665,-0.2525 z"
       style="fill:none;fill-opacity:1;fill-rule:evenodd;stroke:#ffffff;stroke-width:1;stroke-linecap:butt;stroke-linejoin:miter;stroke-opacity:1;stroke-miterlimit:4;stroke-dasharray:none" />
    <path
       inkscape:connector-curvature="0"
       id="path4846"
       d="m 447.14585,1031.3356 c 0.4963,5.642 0.894,11.7126 2.7779,19.0666 2.2939,1.2838 17.1302,3.4086 21.2764,-0.6945 0.9527,-1.7378 0.021,-10.0804 -0.063,-15.2154 0.021,-4.7561 -2.6847,-5.926 -8.2706,-10.1015 l -10.0384,-0.5682 c -2.4936,1.7334 -5.5203,4.451 -5.6821,7.513 z"
       style="fill:none;fill-opacity:1;fill-rule:evenodd;stroke:#ffffff;stroke-width:1;stroke-linecap:butt;stroke-linejoin:miter;stroke-opacity:1;stroke-miterlimit:4;stroke-dasharray:none" />
    <path
       inkscape:connector-curvature="0"
       id="path4850"
       d="m 495.33775,1031.8631 c -0.8282,0.9033 -0.8298,7.8879 1.5178,10.9821 1.4802,1.5232 10.061,0.5717 13.0358,-3.6607 0.7589,-1.2054 1.2934,-10.3174 -0.5358,-13.9286 -0.5786,-1.217 -1.7956,-3.0606 -3.5714,-2.6786 -4.03,1.4575 -7.1515,5.6309 -10.4464,9.2858 z"
       style="fill:none;fill-opacity:1;fill-rule:evenodd;stroke:#ffffff;stroke-width:1;stroke-linecap:butt;stroke-linejoin:miter;stroke-opacity:1;stroke-miterlimit:4;stroke-dasharray:none" />
    <path
       inkscape:connector-curvature="0"
       id="path4852"
       d="m 509.89135,1026.4166 c 1.6843,3.7798 -0.103,10.1786 1.0714,12.1429 0.6453,1.1184 6.3609,-0.7433 7.1428,-2.1429 1.6518,-3.3631 3.6496,-18.1736 2.4108,-18.6607 -1.9322,-0.4273 -7.9008,4.0432 -10.625,8.6607 z"
       style="fill:none;fill-opacity:1;fill-rule:evenodd;stroke:#ffffff;stroke-width:1;stroke-linecap:butt;stroke-linejoin:miter;stroke-opacity:1;stroke-miterlimit:4;stroke-dasharray:none" />
    <path
       inkscape:connector-curvature="0"
       id="path4854"
       d="m 521.23055,1019.0952 c 10e-5,2.0536 -1.2946,10.7143 -1.2946,10.7143 1.576,-0.8491 3.5645,-0.7269 4.6875,-6.7857 0.4264,-3.442 1.0017,-6.3462 -0.089,-7.5893 -0.9628,-0.9584 -2.1799,2.0837 -3.3039,3.6607 z"
       style="fill:none;fill-opacity:1;fill-rule:evenodd;stroke:#ffffff;stroke-width:1;stroke-linecap:butt;stroke-linejoin:miter;stroke-opacity:1;stroke-miterlimit:4;stroke-dasharray:none" />
    <path
       inkscape:connector-curvature="0"
       id="path4805-7"
       d="m 367.40105,934.26212 c 0.2381,-0.5767 0.7004,-1.2726 1.9777,-0.9888 0.8943,0.1987 2.0408,0.869 1.2585,2.1574 -0.4321,0.7116 -1.5674,1.2215 -2.3372,0.8989 -0.6931,-0.2904 -1.1802,-1.3862 -0.899,-2.0675 z"
       style="fill:none;fill-opacity:1;fill-rule:evenodd;stroke:#ffffff;stroke-width:1;stroke-linecap:butt;stroke-linejoin:miter;stroke-miterlimit:4;stroke-dasharray:none;stroke-opacity:1" />
    <path
       inkscape:connector-curvature="0"
       id="path5130"
       d="m 592.23645,1001.6554 c 1.835,-3.38648 4.1574,-28.20568 4.4181,-9.13138"
       style="fill:none;fill-opacity:1;fill-rule:evenodd;stroke:#ffffff;stroke-width:1;stroke-linecap:butt;stroke-linejoin:miter;stroke-opacity:1;stroke-miterlimit:4;stroke-dasharray:none" />
  </g>
  <path
     style="fill:none;fill-opacity:1;fill-rule:evenodd;stroke:#ffffff;stroke-width:1;stroke-linecap:butt;stroke-linejoin:miter;stroke-miterlimit:4;stroke-dasharray:none;stroke-opacity:1"
     d="M 444.62596,-0.79973615 277.76036,372.96343 l -9.58253,463.59196 79.02046,270.53741 26.34015,267.3323 96.55208,226.8099"
     id="path4167"
     inkscape:connector-curvature="0"
     sodipodi:nodetypes="cccccc" />
  <path
     style="fill:none;fill-opacity:1;fill-rule:evenodd;stroke:#ffffff;stroke-width:1;stroke-linecap:butt;stroke-linejoin:miter;stroke-miterlimit:4;stroke-dasharray:none;stroke-opacity:1"
     d="M 396.47835,-0.79973615 253.99467,214.78059 l -36.47099,213.1434 12.157,195.08042 6.0785,307.07101 48.62797,50.57635 28.36632,274.55773 52.68031,104.7654 52.6803,126.4409 66.1596,114.8192"
     id="path4169"
     inkscape:connector-curvature="0"
     sodipodi:nodetypes="cccccccccc" />
  <path
     style="fill:none;fill-opacity:1;fill-rule:evenodd;stroke:#ffffff;stroke-width:1;stroke-linecap:butt;stroke-linejoin:miter;stroke-miterlimit:4;stroke-dasharray:none;stroke-opacity:1"
     d="M 345.81758,-0.79973615 307.68401,104.65495 203.34052,272.58217 l -32.41865,213.14341 50.65414,242.0442 -6.0785,151.72915 14.18317,39.73858 4.05233,169.79229 58.7588,231.2064 60.78497,119.2158 31.71479,161.783"
     id="path4171"
     inkscape:connector-curvature="0"
     sodipodi:nodetypes="ccccccccccc" />
  <path
     style="fill:none;fill-opacity:1;fill-rule:evenodd;stroke:#ffffff;stroke-width:1;stroke-linecap:butt;stroke-linejoin:miter;stroke-miterlimit:4;stroke-dasharray:none;stroke-opacity:1"
     d="M 276.93458,-0.79973615 225.62833,189.49239 168.8957,333.9964 l -34.44482,274.55755 32.41865,166.17961 22.28782,169.79222 26.34016,234.81902 30.3925,68.6393 26.34015,256.4947 37.79328,96.7562"
     id="path4173"
     inkscape:connector-curvature="0"
     sodipodi:nodetypes="cccccccccc" />
  <path
     style="fill:none;fill-opacity:1;fill-rule:evenodd;stroke:#ffffff;stroke-width:1;stroke-linecap:butt;stroke-linejoin:miter;stroke-miterlimit:4;stroke-dasharray:none;stroke-opacity:1"
     d="M 199.9403,-0.79973615 59.482756,431.53659 l 8.104671,184.24266 36.470963,350.42207 -8.10464,346.80968 81.04662,133.6662 56.02878,154.5578"
     id="path4175"
     inkscape:connector-curvature="0"
     sodipodi:nodetypes="ccccccc" />
  <path
     style="fill:none;fill-opacity:1;fill-rule:evenodd;stroke:#ffffff;stroke-width:1;stroke-linecap:butt;stroke-linejoin:miter;stroke-opacity:1;stroke-miterlimit:4;stroke-dasharray:none"
     d="M 122.88476,-0.79973615 28.997381,408.129 0.62074937,713.66121"
     id="path4177"
     inkscape:connector-curvature="0"
     sodipodi:nodetypes="ccc" />
  <path
     style="fill:none;fill-rule:evenodd;stroke:#ffffff;stroke-width:1;stroke-linecap:butt;stroke-linejoin:miter;stroke-opacity:1;stroke-miterlimit:4;stroke-dasharray:none"
     d="m 2.647657,1316.6855 125.667933,201.0079 110.77353,83.5416"
     id="path4179"
     inkscape:connector-curvature="0"
     sodipodi:nodetypes="ccc" />
  <path
     style="fill:none;fill-rule:evenodd;stroke:#ffffff;stroke-width:1;stroke-linecap:butt;stroke-linejoin:miter;stroke-opacity:1;stroke-miterlimit:4;stroke-dasharray:none"
     d="M 479.95835,-0.28341623 401.2148,159.85766 393.06725,342.63737"
     id="path4183"
     inkscape:connector-curvature="0"
     sodipodi:nodetypes="ccc" />
  <path
     style="fill:none;fill-rule:evenodd;stroke:#ffffff;stroke-width:1;stroke-linecap:butt;stroke-linejoin:miter;stroke-opacity:1;stroke-miterlimit:4;stroke-dasharray:none"
     d="M 497.14688,-0.28341623 440.47091,95.486664 440.12083,207.85186 457.60701,316.68171"
     id="path4185"
     inkscape:connector-curvature="0"
     sodipodi:nodetypes="cccc" />
  <path
     style="fill:none;fill-rule:evenodd;stroke:#ffffff;stroke-width:1;stroke-linecap:butt;stroke-linejoin:miter;stroke-opacity:1;stroke-miterlimit:4;stroke-dasharray:none"
     d="m 484.51282,299.73595 -24.80723,-162.34361 11.6477,-52.134289 19.75043,-69.806931 7.99264,-15.73453623 -0.50643,0"
     id="path4187"
     inkscape:connector-curvature="0"
     sodipodi:nodetypes="cccccc" />
  <path
     style="fill:none;fill-rule:evenodd;stroke:#ffffff;stroke-width:1;stroke-linecap:butt;stroke-linejoin:miter;stroke-opacity:1;stroke-miterlimit:4;stroke-dasharray:none"
     d="m 504.16057,-0.28341623 -13.05685,70.51972123 -13.67337,45.948875 6.07705,91.89773 12.70161,81.01924"
     id="path4189"
     inkscape:connector-curvature="0"
     sodipodi:nodetypes="ccccc" />
  <path
     style="fill:none;fill-rule:evenodd;stroke:#ffffff;stroke-width:1;stroke-linecap:butt;stroke-linejoin:miter;stroke-opacity:1;stroke-miterlimit:4;stroke-dasharray:none"
     d="m 502.14465,290.92041 11.74804,-103.16103 -7.0899,-82.17779 -1.51926,-46.832499 3.54496,-46.832483 1.91556,-12.20002423"
     id="path4191"
     inkscape:connector-curvature="0"
     sodipodi:nodetypes="cccccc" />
  <path
     style="fill:none;fill-rule:evenodd;stroke:#ffffff;stroke-width:1;stroke-linecap:butt;stroke-linejoin:miter;stroke-opacity:1;stroke-miterlimit:4;stroke-dasharray:none"
     d="m 539.44213,297.75951 2.81016,-90.56026 -8.10273,-55.66879 -5.06422,-118.406688 -5.06422,-20.323533 -2.13582,-13.08365523"
     id="path4193"
     inkscape:connector-curvature="0"
     sodipodi:nodetypes="cccccc" />
  <path
     style="fill:none;fill-rule:evenodd;stroke:#ffffff;stroke-width:1;stroke-linecap:butt;stroke-linejoin:miter;stroke-opacity:1;stroke-miterlimit:4;stroke-dasharray:none"
     d="M 542.64859,-0.28341623 581.75316,133.8578 l -11.14125,51.25066 16.20547,78.64325 2.0577,59.4245"
     id="path4195"
     inkscape:connector-curvature="0"
     sodipodi:nodetypes="ccccc" />
  <path
     style="fill:none;fill-rule:evenodd;stroke:#ffffff;stroke-width:1;stroke-linecap:butt;stroke-linejoin:miter;stroke-opacity:1;stroke-miterlimit:4;stroke-dasharray:none"
     d="m 570.02621,-0.3506225 43.33444,134.8284425 -5.15527,59.26477 62.74945,83.60839 -3.54639,74.6005 -4.7028,60.41665"
     id="path4197"
     inkscape:connector-curvature="0"
     sodipodi:nodetypes="cccccc" />
  <path
     style="fill:none;fill-rule:evenodd;stroke:#ffffff;stroke-width:1;stroke-linecap:butt;stroke-linejoin:miter;stroke-opacity:1;stroke-miterlimit:4;stroke-dasharray:none"
     d="m 608.53988,-0.36117246 -0.33327,76.34674346 48.56384,66.249899 42.54859,174.39183 18.23512,170.97234 -15.54333,136.55892"
     id="path4199"
     inkscape:connector-curvature="0"
     sodipodi:nodetypes="cccccc" />
  <path
     style="fill:none;fill-rule:evenodd;stroke:#ffffff;stroke-width:1;stroke-linecap:butt;stroke-linejoin:miter;stroke-opacity:1;stroke-miterlimit:4;stroke-dasharray:none"
     d="m 627.79515,-0.40284076 19.87247,51.46254276 73.98194,79.063168 7.09415,41.54167 14.18832,150.08601 34.45733,100.50403 -21.28247,233.16933 10.13451,148.74606 -18.24211,160.80633 -28.37664,103.1841 -10.1345,296.1519 32.43043,112.5645 -46.61876,123.9001"
     id="path4201"
     inkscape:connector-curvature="0"
     sodipodi:nodetypes="ccccccccccccc" />
  <path
     style="fill:none;fill-rule:evenodd;stroke:#ffffff;stroke-width:1.18522811;stroke-linecap:butt;stroke-linejoin:miter;stroke-miterlimit:4;stroke-dasharray:none;stroke-opacity:1"
     d="m 360.25409,809.46774 7.70106,174.88022 39.52458,186.36354 57.76672,267.3097 28.37663,105.4178 26.34972,57.3379"
     id="path4203"
     inkscape:connector-curvature="0"
     sodipodi:nodetypes="cccccc" />
  <path
     style="fill:none;fill-rule:evenodd;stroke:#ffffff;stroke-width:1.24209487;stroke-linecap:butt;stroke-linejoin:miter;stroke-miterlimit:4;stroke-dasharray:none;stroke-opacity:1"
     d="m 399.43608,941.74531 2.6591,97.31959 64.49562,179.8134 20.78193,156.4231 22.93177,105.2564 25.79827,80.4045 4.2997,39.8146"
     id="path4205"
     inkscape:connector-curvature="0"
     sodipodi:nodetypes="ccccccc" />
  <path
     style="fill:none;fill-rule:evenodd;stroke:#ffffff;stroke-width:1.27757251;stroke-linecap:butt;stroke-linejoin:miter;stroke-miterlimit:4;stroke-dasharray:none;stroke-opacity:1"
     d="m 548.28527,1600.7769 9.31603,-107.0788 -29.38134,-74.2369 -31.5312,-153.1135 -16.48222,-32.4787 -29.38133,-177.8591 -24.36502,-37.1185 -5.09101,-48.03692"
     id="path4207"
     inkscape:connector-curvature="0"
     sodipodi:nodetypes="cccccccc" />
  <path
     style="fill:none;fill-rule:evenodd;stroke:#ffffff;stroke-width:1.36395693;stroke-linecap:butt;stroke-linejoin:miter;stroke-miterlimit:4;stroke-dasharray:none;stroke-opacity:1"
     d="m 479.18825,1020.3674 -5.55535,116.8498 28.0722,55.9336 25.79823,133.9743 40.84724,93.4297 2.86649,58.1732 -13.61576,122.0489"
     id="path4209"
     inkscape:connector-curvature="0"
     sodipodi:nodetypes="ccccccc" />
  <path
     style="fill:none;fill-rule:evenodd;stroke:#ffffff;stroke-width:1.36395693;stroke-linecap:butt;stroke-linejoin:miter;stroke-miterlimit:4;stroke-dasharray:none;stroke-opacity:1"
     d="m 507.03279,1039.515 6.13818,144.8217 18.63208,84.6157 7.67534,85.5632"
     id="path4211"
     inkscape:connector-curvature="0"
     sodipodi:nodetypes="cccc" />
  <path
     style="fill:none;fill-rule:evenodd;stroke:#ffffff;stroke-width:1.43571174;stroke-linecap:butt;stroke-linejoin:miter;stroke-miterlimit:4;stroke-dasharray:none;stroke-opacity:1"
     d="m 564.56507,1531.6146 14.53478,69.1623"
     id="path4213"
     inkscape:connector-curvature="0"
     sodipodi:nodetypes="cc" />
  <path
     style="fill:none;fill-rule:evenodd;stroke:#ffffff;stroke-width:1.43571174;stroke-linecap:butt;stroke-linejoin:miter;stroke-miterlimit:4;stroke-dasharray:none;stroke-opacity:1"
     d="m 551.03644,1073.7428 0.83191,135.9394 27.2315,183.5988 -2.14986,140.6289 7.88279,66.867"
     id="path4215"
     inkscape:connector-curvature="0"
     sodipodi:nodetypes="ccccc" />
  <path
     style="fill:none;fill-rule:evenodd;stroke:#ffffff;stroke-width:1.43571174;stroke-linecap:butt;stroke-linejoin:miter;stroke-miterlimit:4;stroke-dasharray:none;stroke-opacity:1"
     d="m 592.71559,1600.7769 -0.71661,-115.6966 -2.86647,-179.6922 -18.63207,-148.4416 4.75935,-75.2493"
     id="path4217"
     inkscape:connector-curvature="0"
     sodipodi:nodetypes="ccccc" />
  <path
     style="fill:none;fill-rule:evenodd;stroke:#ffffff;stroke-width:1.43571174;stroke-linecap:butt;stroke-linejoin:miter;stroke-miterlimit:4;stroke-dasharray:none;stroke-opacity:1"
     d="m 597.91619,1059.145 -10.93355,142.7248 20.06533,259.7729 -5.73296,139.1342"
     id="path4219"
     inkscape:connector-curvature="0"
     sodipodi:nodetypes="cccc" />
  <path
     style="fill:none;fill-rule:evenodd;stroke:#ffffff;stroke-width:1.27757251;stroke-linecap:butt;stroke-linejoin:miter;stroke-miterlimit:4;stroke-dasharray:none;stroke-opacity:1"
     d="m 612.7809,1600.7769 25.08162,-176.6758 -23.64838,-154.6602 9.31604,-197.9651 -4.50812,-61.4956"
     id="path4221"
     inkscape:connector-curvature="0"
     sodipodi:nodetypes="ccccc" />
  <path
     style="fill:none;fill-rule:evenodd;stroke:#ffffff;stroke-width:1.24209487;stroke-linecap:butt;stroke-linejoin:miter;stroke-miterlimit:4;stroke-dasharray:none;stroke-opacity:1"
     d="m 634.84863,961.36283 13.04656,137.64007 8.59941,283.608 -8.59941,144.7277 -0.71662,73.4383"
     id="path4223"
     inkscape:connector-curvature="0"
     sodipodi:nodetypes="ccccc" />
  <path
     style="fill:none;fill-rule:evenodd;stroke:#ffffff;stroke-width:1;stroke-linecap:butt;stroke-linejoin:miter;stroke-miterlimit:4;stroke-dasharray:none;stroke-opacity:1"
     d="m 668.67711,1600.7769 27.9481,-186.8922 -25.08163,-158.2426 19.34869,-214.1488 32.24781,-100.44153 -36.1072,-176.21451"
     id="path4225"
     inkscape:connector-curvature="0"
     sodipodi:nodetypes="cccccc" />
  <path
     style="fill:none;fill-rule:evenodd;stroke:#ffffff;stroke-width:1;stroke-linecap:butt;stroke-linejoin:miter;stroke-opacity:1;stroke-miterlimit:4;stroke-dasharray:none"
     d="M 674.85752,-0.40284076 808.41765,197.21635 l -14.33237,45.48293 38.69737,301.32435 -22.93177,153.5049 12.89912,409.34647 -31.53119,138.3438 7.16617,144.0294 -42.99709,211.5287"
     id="path4227"
     inkscape:connector-curvature="0"
     sodipodi:nodetypes="ccccccccc" />
  <path
     style="fill:none;fill-rule:evenodd;stroke:#ffffff;stroke-width:1;stroke-linecap:butt;stroke-linejoin:miter;stroke-opacity:1;stroke-miterlimit:4;stroke-dasharray:none"
     d="m 796.95175,1600.7769 91.72712,-241.8508 -8.59942,-98.5462 L 957.47421,968.53104 908.74418,771.43831 860.01415,623.61889 877.21298,339.35052 839.94884,183.9505 828.48294,51.291936 773.75081,-0.40284076"
     id="path4229"
     inkscape:connector-curvature="0"
     sodipodi:nodetypes="cccccccccc" />
  <path
     style="fill:none;fill-rule:evenodd;stroke:#ffffff;stroke-width:1;stroke-linecap:butt;stroke-linejoin:miter;stroke-opacity:1;stroke-miterlimit:4;stroke-dasharray:none"
     d="m 879.81029,-0.40284076 91.99627,180.56309076 -20.0653,212.25369 88.86064,261.52682 -40.1306,121.28781 34.3977,295.63913 0,208.4634 -74.52832,128.8684 -91.72712,192.5774"
     id="path4231"
     inkscape:connector-curvature="0"
     sodipodi:nodetypes="ccccccccc" />
  <path
     style="fill:none;fill-rule:evenodd;stroke:#ffffff;stroke-width:1;stroke-linecap:butt;stroke-linejoin:miter;stroke-opacity:1;stroke-miterlimit:4;stroke-dasharray:none"
     d="m 980.28055,0 99.33505,177.93959 -41.8253,78.42245 44.4394,133.31816 60.1239,120.24776 15.6845,128.09 57.5098,115.01959 -23.5268,120.24776 -31.369,193.44199 54.8958,88.8788 -31.369,104.5633 -73.1943,141.1604 -96.721,73.1943 -41.82529,81.0365 L 920.15667,1600"
     id="path4422"
     inkscape:connector-curvature="0" />
  <path
     style="fill:none;fill-rule:evenodd;stroke:#ffffff;stroke-width:1;stroke-linecap:butt;stroke-linejoin:miter;stroke-opacity:1;stroke-miterlimit:4;stroke-dasharray:none"
     d="m 1103.1423,0 96.7211,133.5002 -10.4564,73.19429 44.4394,164.68714 47.0535,54.89572 13.0704,185.59979 70.5802,219.58286 -36.5971,120.24776 -23.5268,141.16044 62.738,75.8083 -94.1069,175.1435 -99.3351,101.9492 -44.4394,101.9492 -75.8084,52.2816 -7.8422,0"
     id="path4424"
     inkscape:connector-curvature="0" />
  <path
     style="fill:none;fill-rule:evenodd;stroke:#ffffff;stroke-width:1;stroke-linecap:butt;stroke-linejoin:miter;stroke-opacity:1;stroke-miterlimit:4;stroke-dasharray:none"
     d="m 1254.7591,0 -15.6845,146.57061 135.9322,216.96878 -15.6845,73.19428 141.1605,298.00531 -26.1409,96.72102 23.5268,83.65061 33.983,266.63629 -47.0534,54.8958 -49.6676,83.6506 -83.6506,167.3012 -83.6506,36.5971 -36.5972,75.8084 -15.6844,0"
     id="path4426"
     inkscape:connector-curvature="0" />
  <path
     style="fill:none;fill-rule:evenodd;stroke:#ffffff;stroke-width:1;stroke-linecap:butt;stroke-linejoin:miter;stroke-opacity:1;stroke-miterlimit:4;stroke-dasharray:none"
     d="m 1500.4828,0 -23.5268,107.35939 125.4759,222.19694 -23.5267,101.94918 18.2986,39.21123 -7.8423,67.96612 33.9831,130.70408 94.1069,271.86449 -18.2985,41.8253 -54.8958,65.35207 18.2986,141.1604 -49.6675,104.5632 -83.6506,109.7915 -41.8254,91.4928 -73.1942,70.5802 -23.5268,33.9831"
     id="path4428"
     inkscape:connector-curvature="0" />
  <path
     style="fill:none;fill-rule:evenodd;stroke:#ffffff;stroke-width:1;stroke-linecap:butt;stroke-linejoin:miter;stroke-opacity:1;stroke-miterlimit:4;stroke-dasharray:none"
     d="m 1704.3811,0 135.9323,102.13122 -15.6845,49.66756 -7.8423,274.47857 39.2113,26.14081 -31.369,266.63633 10.4563,120.24776 0,201.28425 -36.5971,86.2647 -62.738,154.2308 41.8253,130.7041 -104.5633,115.0196 -39.2112,73.1943"
     id="path4430"
     inkscape:connector-curvature="0" />
  <path
     style="fill:none;fill-rule:evenodd;stroke:#fbd1a2;stroke-width:1;stroke-linecap:butt;stroke-linejoin:miter;stroke-opacity:1;stroke-miterlimit:4;stroke-dasharray:none"
     d="m 1895.2091,1600 104.7908,-250.9518"
     id="path4432"
     inkscape:connector-curvature="0" />
</svg>
