<?xml version="1.0" encoding="UTF-8" standalone="no"?>
<!-- Created with Inkscape (http://www.inkscape.org/) -->

<svg
   xmlns:dc="http://purl.org/dc/elements/1.1/"
   xmlns:cc="http://creativecommons.org/ns#"
   xmlns:rdf="http://www.w3.org/1999/02/22-rdf-syntax-ns#"
   xmlns:svg="http://www.w3.org/2000/svg"
   xmlns="http://www.w3.org/2000/svg"
   xmlns:sodipodi="http://sodipodi.sourceforge.net/DTD/sodipodi-0.dtd"
   xmlns:inkscape="http://www.inkscape.org/namespaces/inkscape"
   width="185.04144mm"
   height="279.94046mm"
   viewBox="0 0 655.65864 991.91501"
   id="svg9076"
   version="1.1"
   inkscape:version="0.91 r13725"
   sodipodi:docname="silhouette_fill1.svg">
  <defs
     id="defs9078" />
  <sodipodi:namedview
     id="base"
     pagecolor="#ffffff"
     bordercolor="#666666"
     borderopacity="1.0"
     inkscape:pageopacity="0.0"
     inkscape:pageshadow="2"
     inkscape:zoom="0.49497474"
     inkscape:cx="-188.26187"
     inkscape:cy="397.69214"
     inkscape:document-units="px"
     inkscape:current-layer="layer1"
     showgrid="false"
     inkscape:window-width="1920"
     inkscape:window-height="1057"
     inkscape:window-x="-8"
     inkscape:window-y="1072"
     inkscape:window-maximized="1"
     fit-margin-top="0"
     fit-margin-left="0"
     fit-margin-right="0"
     fit-margin-bottom="0" />
  <metadata
     id="metadata9081">
    <rdf:RDF>
      <cc:Work
         rdf:about="">
        <dc:format>image/svg+xml</dc:format>
        <dc:type
           rdf:resource="http://purl.org/dc/dcmitype/StillImage" />
        <dc:title></dc:title>
      </cc:Work>
    </rdf:RDF>
  </metadata>
  <g
     inkscape:label="Layer 1"
     inkscape:groupmode="layer"
     id="layer1"
     transform="translate(5526.8572,-1053.5216)">
    <path
       style="fill:#73819a;fill-opacity:1;stroke:none;stroke-width:4;stroke-miterlimit:4;stroke-dasharray:none;stroke-opacity:1"
       d="m -5054.7795,2046.2781 c -146.9534,-8.1273 -300.6701,-201.6014 -398.6557,-202.6709 6.3833,-21.775 52.3944,-45.6517 57.1314,-179.09 0,0 -0.3027,-2.2076 0.7406,-2.8532 -5.43,-1.1945 -16.4818,-8.5741 -18.5443,-34.3126 -1.3883,-21.7408 -18.4513,-45.1514 -25.2531,-60.4964 -10.3731,-40.6902 -25.7695,-50.869 -50.0902,-91.2487 -5.6234,-9.0649 -36.7153,-95.4083 -32.1786,-138.9564 1.2138,-2.5672 1.2926,-3.5881 0.3495,-4.5313 -0.4786,-0.4788 -0.9962,-1.54 -1.1495,-2.358 -0.2326,-1.2398 -0.1265,-1.5688 0.6312,-1.9747 1.1978,-0.641 0.7389,-1.3015 -0.9039,-1.3015 -1.1722,0 -1.2889,-0.1152 -1.1031,-1.0871 0.1464,-0.7624 -0.049,-1.2664 -0.65,-1.6879 -0.5892,-0.4125 -0.7814,-0.8943 -0.6131,-1.5369 0.1353,-0.5146 -0.1421,-1.9177 -0.6154,-3.1179 -0.7088,-1.798 -0.7836,-2.4838 -0.4248,-3.8971 0.2396,-0.9433 0.2779,-1.9156 0.086,-2.1605 -0.6294,-0.8007 -0.8772,-3.4115 -0.4845,-5.1064 -0.213,-2.5476 0.1975,-3.7334 0.022,-6.0817 0,-0.8927 2.1271,-5.4156 4.518,-9.606 0.7237,-1.2685 1.558,-2.1583 2.0239,-2.1583 0.7671,0 -0.4452,7.438 -1.4325,8.7885 -0.1731,0.2357 -0.3182,1.9117 -0.3242,3.7242 1.6013,5.1759 2.0054,11.3201 5.1334,-1.4902 0.4559,-1.8366 0.7029,-3.543 0.549,-3.7921 -0.1533,-0.2491 -0.084,-0.8685 0.153,-1.3765 1.4747,-3.1524 1.4879,-5.8907 0.031,-6.3762 -0.3204,-0.1062 -0.5259,-1.3382 -0.5614,-3.3678 -0.064,-3.6808 -0.3043,-4.2552 -1.774,-4.2552 -0.6127,0 -1.0286,-0.2278 -0.9791,-0.536 0.047,-0.2947 -0.056,-0.8579 -0.2281,-1.2514 -0.182,-0.4124 -0.047,-1.139 0.3195,-1.7147 0.8713,-1.3732 0.2789,-2.6894 -1.6148,-3.588 -0.8395,-0.3983 -1.5264,-0.988 -1.5264,-1.3104 0,-0.648 1.8461,-1.2655 2.5265,-0.845 0.2372,0.1466 0.6409,-0.1246 0.8968,-0.6026 0.412,-0.7699 0.3378,-0.8695 -0.6497,-0.8695 -1.3479,0 -6.2768,-5.7819 -6.2768,-6.4498 0,-0.268 -0.3082,-0.8278 -0.6851,-1.2441 -0.8898,-0.9835 -0.4775,-1.6079 0.8893,-1.3466 1.3048,0.2493 1.3718,-0.2663 0.2245,-1.725 -1.1736,-1.492 -1.0765,-2.0264 0.3684,-2.0264 0.9236,0 1.6315,0.4759 2.8702,1.9291 1.8079,2.1209 6.2514,7.521 6.295,6.0399 0.056,-1.9164 1.5143,-5.4497 2.8894,-7.003 0.7728,-0.8727 1.615,-1.9931 1.8721,-2.4899 0.2569,-0.4968 1.1756,-1.5784 2.0418,-2.4036 0.8661,-0.8253 1.9062,-2.0311 2.3114,-2.6795 0.4815,-0.7704 1.1047,-1.1789 1.7988,-1.1789 0.9866,0 1.0618,0.1498 1.0618,2.1182 0,1.1651 -0.193,2.2375 -0.4286,2.3832 -0.2357,0.1457 -0.4288,1.0138 -0.4288,1.9291 3.4782,1.9123 6.3444,-0.9318 3.119,-2.2121 -0.162,-2.0303 -0.04,-3.1928 0.4527,-4.256 0.3725,-0.8046 0.9679,-2.3274 1.3234,-3.3844 0.5723,-1.7013 0.5734,-2.0327 0,-2.8936 -0.3503,-0.5349 -0.879,-0.9724 -1.1749,-0.9724 -0.6713,0 -1.933,1.4446 -2.4506,2.8058 -0.2377,0.6256 -0.8588,1.1274 -1.5851,1.2808 -0.6567,0.1388 -1.5318,0.4353 -1.9445,0.6588 -0.6231,0.3375 -0.75,0.2242 -0.75,-0.6691 0,-0.9035 0.2019,-1.0753 1.2572,-1.0753 0.9052,0 1.3381,-0.255 1.5462,-0.911 0.3071,-0.9674 -0.4738,-1.7986 -1.379,-1.4679 -0.9124,0.3334 -1.4763,-0.9496 -1.3423,-3.0538 0.1242,-1.9327 0.2152,-2.079 1.3846,-2.2124 0.6924,-0.078 1.622,-0.6128 2.0795,-1.1941 0.85,-1.081 1.5314,-1.0964 3.6016,-0.082 1.3558,0.6645 3.1412,0.1029 3.1412,-0.9874 0,-0.5181 0.3451,-0.9797 0.8274,-1.1058 0.5859,-0.1533 0.8174,-0.5739 0.7927,-1.4405 -0.029,-0.9891 -0.2725,-1.2763 -1.2738,-1.4962 -0.7618,-0.1673 -1.4979,-0.057 -1.9109,0.2855 -0.563,0.4672 -0.7685,0.4254 -1.2686,-0.2583 -0.3281,-0.4488 -0.5967,-0.9721 -0.5967,-1.1628 0,-0.1908 -0.6839,-0.3468 -1.52,-0.3468 -1.0496,0 -1.8513,0.3316 -2.5915,1.0719 -0.7104,0.7102 -1.549,1.0717 -2.4868,1.0717 -1.786,0 -4.1192,1.1402 -4.1192,2.013 0,0.4752 -0.153,0.5416 -0.5359,0.2334 -0.2946,-0.2368 -1.6772,-0.4532 -3.0719,-0.4807 -1.3949,-0.027 -2.6316,-0.1456 -2.7484,-0.2622 -0.3785,-0.3787 1.3221,-1.9323 2.1153,-1.9323 1.2553,0 2.9197,-0.9286 3.1897,-1.7798 0.2948,-0.9289 0.7459,-0.9902 1.9145,-0.2605 0.6777,0.4233 1.0255,0.4233 1.7032,0 0.4681,-0.2925 1.2447,-0.5319 1.7253,-0.5319 0.5242,0 1.0282,-0.4054 1.2591,-1.0132 0.419,-1.1021 1.2451,-1.559 2.8186,-1.559 0.5563,0 1.1305,-0.193 1.2763,-0.4286 0.1465,-0.2359 0.7247,-0.4288 1.2863,-0.4288 0.5615,0 1.14,-0.1929 1.2859,-0.4287 0.1464,-0.2358 0.8989,-0.4287 1.6736,-0.4287 0.8643,0 1.7087,-0.3314 2.1848,-0.8574 0.4267,-0.4715 1.0981,-0.8574 1.492,-0.8574 0.3939,0 1.1717,-0.4849 1.7285,-1.0775 0.7809,-0.8313 0.8961,-1.1936 0.5035,-1.5862 -0.2798,-0.2797 -0.5089,-1.3268 -0.5089,-2.3268 0,-2.0736 -0.5518,-2.6643 -1.5535,-1.6627 -0.8108,0.8112 -1.6053,0.6573 -1.8002,-0.3487 -0.093,-0.482 0.1508,-0.7147 0.7501,-0.7147 1.5946,-0.6756 3.3382,-1.3814 4.1637,-2.6794 0.6288,-1.0022 -0.3885,-8.1811 0.045,-8.8169 0.5585,-0.82 0.2984,-1.4589 0.2984,-1.4589 0,0 1.0927,-1.4577 3.7089,-1.4577 2.6478,0 -0.036,-3.7886 -0.036,-5.0197 0,-0.5281 0.5875,-0.6834 2.8183,-0.7453 1.55,-0.044 3.0527,-0.2732 3.3395,-0.511 0.2867,-0.2381 1.532,-0.4099 2.7675,-0.3817 7.4605,-0.6072 6.1435,3.652 6.7002,0.1149 0.2507,-1.515 0.5209,-1.8324 2.32,-2.7248 2.2614,-1.1217 -3.8178,-9.9073 -5.1669,-11.0626 -0.6752,-0.5782 -1.3224,-0.7194 -2.4653,-0.5376 -0.8521,0.1353 -1.8038,0.088 -2.1142,-0.1052 -0.3515,-0.2183 0.3906,-0.4508 1.9645,-0.6154 3.2177,-0.3362 3.9591,-0.6306 3.9591,-1.5719 4.3889,11.4793 18.0935,-11.0209 11.865,-10.7426 -9.1784,1.7786 5.5293,-9.6719 4.4048,-9.1154 -0.3764,0.1864 -2.2574,0.3319 -4.1795,0.3235 -2.1187,-0.011 -3.7402,0.1882 -4.1178,0.5014 -0.3425,0.2842 -0.9765,0.4044 -1.409,0.2671 -1.0987,-0.3487 -5.2885,1.2029 -7.5475,2.7952 -1.3402,0.9444 -2.1563,1.2488 -2.8011,1.0441 -0.5005,-0.1588 -0.9096,-0.4687 -0.9096,-0.6885 0,-0.2199 -0.2897,-0.3998 -0.6433,-0.3998 -1.2403,0 -0.6108,-1.0802 1.1245,-1.9292 1.6258,-0.7954 2.5432,-1.8996 3.1173,-3.7512 0.1754,-0.5679 0.6984,-0.7502 2.15,-0.7502 1.0545,0 2.0364,-0.1929 2.1822,-0.4287 3.5679,-1.5202 16.1556,-5.7233 18.6488,-4.0726 0,0.3632 0.3836,0.6431 0.8815,0.6431 0.8206,0 0.8365,-0.064 0.2266,-0.9355 -0.5059,-0.7224 -0.5412,-1.0724 -0.1553,-1.538 0.6171,-0.7438 0.4689,-7.7779 -0.1798,-8.5604 -0.3144,-0.3792 -0.2897,-0.9232 0.084,-1.8235 0.2924,-0.7058 0.4343,-1.7921 0.3152,-2.414 -0.1197,-0.6239 0.1354,-1.924 0.5665,-2.8998 0.4302,-0.9728 0.9888,-2.9251 1.2415,-4.3383 2.3176,-7.6812 -1.6658,-17.1887 3.4949,-22.1695 0.5869,-0.5192 1.0671,-1.2487 1.0671,-1.6211 0,-0.3724 0.2977,-0.7912 0.6613,-0.9307 0.9116,-0.3499 2.3396,-3.2763 2.3396,-4.7943 0,-0.6879 0.2893,-1.4908 0.6431,-1.7844 0.3537,-0.2934 0.6432,-0.9169 0.6432,-1.3851 0,-0.7109 0.1952,-0.8051 1.1787,-0.5711 0.6484,0.1543 1.4437,0.6575 1.7672,1.1182 0.3235,0.4609 0.8059,0.838 1.0718,0.838 0.2659,0 0.4834,0.4823 0.4834,1.0718 0,1.1111 -0.8323,1.4759 -1.2227,0.5358 -0.3826,-0.921 -1.9919,1.3614 -1.9982,2.834 0,0.7403 -0.1155,1.7512 -0.2477,2.2466 -0.1421,0.5308 0.036,1.1784 0.4344,1.577 0.3722,0.3719 0.6764,1.3653 0.6764,2.2074 0,1.6486 1.1042,2.2068 1.5449,0.7808 0.2608,-0.8438 0.3474,-0.9945 1.9919,-3.464 0.6484,-0.9739 1.179,-2.1366 1.179,-2.584 0,-1.376 1.1289,-2.0048 2.3887,-1.3304 0.9056,0.4845 1.0303,0.7795 0.7976,1.8864 -0.1509,0.7217 -0.4484,1.4955 -0.659,1.7195 -0.211,0.224 -0.3839,1.0203 -0.3839,1.7695 0,0.7491 -0.2848,1.5987 -0.6332,1.8877 -0.3483,0.2891 -1.9289,1.418 -1.6659,2.7319 14.9929,12.8689 13.4965,10.9897 14.4439,-1.5377 0.027,-0.7563 0.2891,-0.9659 1.2136,-0.971 0.6484,0 1.4486,-0.1773 1.7785,-0.3862 0.4012,-0.2541 0.8927,-0.1063 1.4867,0.4469 0.8583,0.7999 0.8965,0.8009 1.1811,0.033 0.4617,-1.2481 5.5843,-6.0879 6.4438,-6.0879 0.2129,0 1.2973,-0.9163 2.411,-2.0362 1.1138,-1.1201 2.4034,-2.2312 2.8656,-2.4694 0.4622,-0.2381 1.333,-1.384 1.9348,-2.5464 0.8219,-1.5872 1.4181,-2.1974 2.3935,-2.4502 0.7145,-0.1853 1.7377,-0.9299 2.2737,-1.655 0.5359,-0.725 1.4169,-1.4864 1.9575,-1.6919 0.7149,-0.2718 1.0573,-0.8376 1.2549,-2.0751 0.2584,-1.6169 1.17,-2.5173 2.0179,-1.9934 0.2086,0.1282 0.4959,-0.2386 0.6407,-0.8155 0.3283,-1.3085 1.7908,-1.7322 3.0747,-0.891 1.1127,0.7291 1.2802,1.476 0.3313,1.476 -0.9591,0 -0.7769,0.7569 0.3214,1.3352 1.416,0.7458 1.6463,1.3286 0.9463,2.3968 -1.1863,1.8106 -0.8408,2.2699 1.7076,2.2699 1.2832,0 2.4519,-0.1929 2.5977,-0.4288 0.1465,-0.2358 0.6096,-0.4286 1.0305,-0.4286 0.4213,0 1.115,-0.3859 1.5417,-0.8575 0.4268,-0.4716 1.126,-0.8574 1.5539,-0.8574 0.4277,0 1.4589,-0.3825 2.2915,-0.8501 1.509,-0.8476 1.5135,-0.8476 1.5135,0 0,0.8819 1.036,1.1728 1.5004,0.4214 0.3554,-0.5751 1.6421,-0.5441 2.2406,0.055 0.3579,0.3581 0.1575,0.7558 -0.7717,1.5387 -1.4774,1.2429 -1.5889,2.0563 -0.3718,2.7078 l 0.8827,0.4724 -0.8827,1.4963 c -1.2769,2.164 -1.1536,2.7334 0.5925,2.7334 0.8113,0 1.5942,-0.1929 1.7399,-0.4287 0.4365,-0.7064 0.9563,-0.488 1.2177,0.5118 0.2439,0.9326 0.2539,0.9335 1.1616,0.112 1.707,-1.5449 1.9093,-2.3859 0.7797,-3.2424 -0.9233,-0.7001 -0.9542,-0.8316 -0.3426,-1.4479 0.3698,-0.3728 1.431,-0.7939 2.3577,-0.9358 1.7711,-0.2711 3.1856,-1.1986 3.1856,-2.0887 0,-1.0727 1.2561,-2.8901 3.4094,-4.9331 3.2794,-3.1114 4.4998,-3.9025 5.0978,-3.3044 0.3758,0.3756 0.8416,0.3711 1.9198,-0.018 1.8161,-0.6568 3.5065,-0.6556 4.5614,0 0.7103,0.4434 1.0854,0.3125 2.6049,-0.9084 1.764,-1.4176 5.4796,-3.0394 6.9634,-3.0394 0.4266,0 1.2581,-0.4823 1.8475,-1.0717 0.7753,-0.7753 1.5325,-1.0719 2.7366,-1.0719 0.9292,0 1.957,-0.2925 2.3268,-0.662 0.3638,-0.3641 1.5144,-1.0391 2.5567,-1.5001 1.0422,-0.461 2.0023,-1.1187 2.1339,-1.4614 0.131,-0.3428 1.0138,-1.1357 1.9605,-1.7623 1.471,-0.9734 1.9049,-1.0749 2.9863,-0.6978 1.1184,0.3898 1.6367,0.2292 4.4673,-1.3838 1.7612,-1.0037 3.7326,-2.2421 4.3805,-2.7518 1.3854,-1.0898 3.2576,-1.1943 4.6816,-0.2612 0.8861,0.5806 1.1993,0.5894 2.4498,0.069 0.7888,-0.3282 1.6905,-0.5101 2.0042,-0.4042 0.3136,0.1063 1.1102,-0.3247 1.7695,-0.9567 0.9694,-0.9287 1.7216,-1.1897 3.9198,-1.3601 1.4959,-0.1162 2.9425,-0.3959 3.2147,-0.6218 0.2721,-0.2257 1.1041,-0.3584 1.8484,-0.2947 1.0687,0.092 1.4749,-0.1096 1.9315,-0.9558 0.7525,-1.3949 1.4148,-2.9755 1.7524,-4.1798 0.2698,-0.9636 1.9271,-1.4077 1.9271,-0.5165 0,0.28 0.5631,0.3425 1.5005,0.1666 0.9834,-0.1844 1.5004,-0.1173 1.5004,0.1948 0,1.0675 2.0374,0.4184 3.3539,-1.0687 1.0144,-1.1458 1.5608,-1.4594 2.1152,-1.2138 0.411,0.1822 1.3894,0.3471 2.1745,0.3662 1.5906,0.039 2.6033,1.3117 2.6302,3.3048 0.022,1.5025 0.6907,1.9784 3.2695,2.3206 2.0053,0.2659 2.2143,0.2059 2.893,-0.8299 0.5061,-0.7724 1.1099,-1.1165 1.9585,-1.1165 l 1.227,0 -0.2153,2.6818 -0.2153,2.6819 1.6947,0.7478 c 1.9166,0.8455 3.5924,0.9628 4.257,0.2981 0.2497,-0.2495 0.3617,-1.3632 0.2523,-2.5033 l -0.1975,-2.0537 4.3249,-0.085 c 4.4473,-0.087 6.0578,0.3243 7.3484,1.8794 0.5192,0.6254 3.4837,2.3548 4.0364,2.3548 0.1177,0 0.6061,-0.4198 1.0837,-0.9327 0.7244,-0.7775 1.3084,-0.924 3.5052,-0.8788 1.4494,0.03 3.1893,0.176 3.8661,0.3246 l 1.2304,0.2702 -0.061,-2.6939 c -0.06,-2.6026 -0.1311,-2.7686 -2.1464,-4.899 -2.1695,-2.2939 -2.7311,-4.0514 -1.2945,-4.0514 0.4351,0 1.1401,0.3857 1.5668,0.8573 0.4267,0.4715 1.1802,0.8693 1.6741,0.8836 0.9996,0.029 7.8345,7.6713 8.6847,9.7101 0.2743,0.6576 1.1098,1.7743 1.8571,2.4818 0.7472,0.7073 1.6223,1.9131 1.9446,2.6793 0.3224,0.7663 0.8244,1.3933 1.1156,1.3933 0.2914,0 1.3765,0.41 2.4116,0.9112 1.3948,0.6751 2.0072,0.7862 2.3648,0.4288 0.2654,-0.2654 0.9193,-0.4826 1.4534,-0.4826 1.2004,0 1.7257,-0.9356 2.0971,-3.7353 0.2403,-1.8125 0.151,-2.3047 -0.5382,-2.9947 -0.8076,-0.8078 -0.8133,-1.0348 -0.073,-3.0365 0.3467,-0.938 0.4053,-0.9492 1.4367,-0.2734 1.2755,0.8357 3.8556,0.5263 4.2531,-0.51 0.4111,-1.0712 0.295,-2.9579 -0.2131,-3.466 -0.2578,-0.2579 -0.3984,-0.827 -0.3122,-1.2647 0.1331,-0.6722 0.422,-0.5296 1.8678,0.9191 1.7952,1.7987 2.7717,3.5429 2.7717,4.9503 0,0.4605 0.1929,0.8371 0.4288,0.8371 0.2355,0 0.4286,0.3623 0.4286,0.805 0,1.1014 0.7967,1.6708 2.5739,1.8394 1.3481,0.1281 1.5203,0.2921 1.7131,1.6335 0.1666,1.1614 0.4846,1.5861 1.4349,1.9194 1.0147,0.3559 1.3223,0.2893 1.8218,-0.3942 0.331,-0.4523 0.6015,-1.3644 0.6015,-2.0267 0,-1.2466 0.1798,-1.3382 2.3907,-1.2212 0.7304,0.038 1.5591,-0.2194 1.8572,-0.5785 0.8327,-1.0036 4.1232,-1.3509 5.3267,-0.5624 0.6471,0.4241 1.2132,0.5191 1.6068,0.2698 0.987,-0.6247 1.1895,-0.4733 1.331,0.9954 l 0.1355,1.3932 2.3067,-0.1431 c 1.2684,-0.078 3.0046,-0.503 3.858,-0.9428 0.8535,-0.4397 2.0823,-0.9975 2.7307,-1.2395 0.6484,-0.2419 1.1789,-0.6412 1.1789,-0.8874 0,-0.2631 0.4412,-0.3366 1.0708,-0.1788 0.5889,0.1477 1.387,0.1476 1.7732,-8e-4 0.6408,-0.2457 0.6349,-0.3442 -0.067,-1.118 -0.5638,-0.623 -1.3197,-0.8483 -2.8449,-0.8483 -1.5605,0 -2.0769,-0.1601 -2.0769,-0.6431 0,-0.6866 0.308,-0.7708 2.4085,-0.6586 1.6077,0.085 3.9646,-1.2433 3.6836,-2.0775 -0.151,-0.4471 0.104,-0.5324 1.0339,-0.3475 2.9342,0.5828 3.8706,0.893 4.9261,1.6314 0.6161,0.4311 1.216,0.6878 1.3334,0.5704 0.3137,-0.3136 5.5238,2.4336 5.7544,3.0339 0.3257,0.8492 3.5139,1.7306 4.1088,1.1359 0.2757,-0.2757 1.003,-0.5014 1.6161,-0.5014 0.6129,0 1.3292,-0.2146 1.5915,-0.4771 0.7687,-0.7685 1.4863,0.011 1.2022,1.3008 -0.3638,1.6568 0.415,3.4633 1.4932,3.4633 0.6348,0 0.9508,0.3596 1.1379,1.2949 0.1421,0.7124 0.4269,1.399 0.6325,1.5259 0.2042,0.1269 0.3732,0.7872 0.3732,1.4673 0,0.9194 0.3299,1.4315 1.286,1.9964 0.7074,0.4178 1.2861,0.9705 1.2861,1.2284 0,0.2577 0.2764,0.843 0.6142,1.3007 0.4784,0.6483 0.7295,0.7187 1.1355,0.3184 0.4055,-0.3998 0.7939,-0.3731 1.7476,0.1202 0.8966,0.4636 1.4483,0.5153 2.0517,0.1924 1.085,-0.5808 1.3103,-0.5576 1.3103,0.1349 0,0.3172 0.3683,0.91 0.8187,1.3173 0.7805,0.7064 0.8323,0.6975 1.1142,-0.191 0.1642,-0.5159 0.086,-1.1423 -0.1753,-1.4032 -0.2593,-0.2591 -0.4712,-1.1917 -0.4712,-2.0724 0,-0.8806 -0.1731,-2.0542 -0.3827,-2.6078 -0.2109,-0.5538 -0.4517,-1.8685 -0.536,-2.9217 -0.1465,-1.8284 -0.1041,-1.9082 0.9148,-1.7634 0.5875,0.084 1.6151,0.5412 2.2837,1.0173 0.848,0.6038 1.3518,0.7297 1.6653,0.4162 0.4762,-0.4763 0.271,-4.8837 -0.289,-6.1973 -0.2645,-0.621 -0.1708,-0.6966 0.5318,-0.4287 0.9467,0.3609 3.9519,4.1014 3.9668,4.9374 0.022,0.9089 1.4394,2.3465 2.5629,2.5893 0.5894,0.1273 1.5058,0.3661 2.0363,0.5306 0.7327,0.2271 0.9646,0.1281 0.9646,-0.4121 0,-0.391 0.3692,-1.1074 0.8206,-1.592 l 0.821,-0.8808 2.7826,1.5561 c 1.5308,0.856 2.8915,1.8393 3.0242,2.185 0.1333,0.3458 0.5178,0.6288 0.856,0.6288 0.3378,0 2.3489,1.8327 4.4689,4.0727 2.1197,2.24 4.046,4.0726 4.2801,4.0726 0.2341,0 0.7361,0.6544 1.1156,1.4539 0.6323,1.3328 1.4277,1.9759 2.4438,1.9759 0.511,0 0.5126,-2.7056 0,-3.2367 -0.3784,-0.3933 -0.6173,-1.6035 -0.5153,-2.6081 0.027,-0.2672 0.4547,-0.5919 0.9501,-0.7214 0.7927,-0.2072 0.879,-0.4838 0.7191,-2.3007 -0.1,-1.1359 -0.3437,-2.4308 -0.5419,-2.8779 -0.3398,-0.7668 -0.184,-0.8003 2.7482,-0.5906 l 3.108,0.2225 -0.26,-1.3865 c -0.3346,-1.7842 0.5454,-2.6805 1.839,-1.8727 0.4748,0.2966 0.9605,0.8382 1.0788,1.2036 0.1177,0.3653 0.5459,1.2431 0.9499,1.9504 1.1012,1.9286 1.4619,2.7263 1.4619,3.2322 0,0.6883 1.9397,3.4035 2.9237,4.0927 0.9792,0.686 2.2208,0.3925 2.2208,-0.525 0,-0.8568 1.173,-1.2111 1.9301,-0.5831 0.404,0.3355 1.1885,0.421 2.1713,0.2366 1.2657,-0.2375 1.5778,-0.151 1.7595,0.4873 0.1222,0.4268 0.7819,1.2247 1.4673,1.7731 1.1815,0.9457 1.2458,0.954 1.2458,0.1598 0,-0.4606 -0.2778,-1.0682 -0.6176,-1.3501 -0.796,-0.6607 -0.385,-1.7359 0.6636,-1.7359 0.5209,0 0.8115,0.3016 0.8115,0.8424 0,0.4632 0.3521,1.0307 0.7824,1.261 0.4303,0.2303 1.1453,1.2982 1.5885,2.373 0.4431,1.0748 1.0076,1.9507 1.2537,1.9465 0.459,-0.011 2.3771,-3.7012 2.3771,-4.5775 0,-0.2676 -0.5939,-1.0335 -1.3199,-1.7019 -0.7259,-0.6685 -1.5011,-1.6712 -1.7227,-2.2284 -0.3117,-0.7843 -0.6442,-0.9669 -1.4724,-0.8086 -0.9274,0.1774 -1.1824,-0.051 -1.9213,-1.7208 -0.4683,-1.059 -0.8514,-2.1901 -0.8514,-2.5138 0,-0.6836 0.6848,-0.7859 1.0716,-0.1598 0.1465,0.2359 0.5635,0.4287 0.928,0.4287 0.3646,0 1.2193,0.468 1.8989,1.0399 0.6797,0.572 2.2864,1.3453 3.5706,1.7187 1.4054,0.4085 2.6691,1.1037 3.1748,1.7466 0.8548,1.087 2.7814,1.4606 3.2895,0.6381 0.1464,-0.2364 1.0737,-0.7945 2.0617,-1.2403 1.5311,-0.6912 2.1435,-0.7464 4.1539,-0.3755 1.297,0.2394 2.7435,0.6045 3.2151,0.8114 0.4715,0.2071 3.1727,0.3172 6.002,0.2448 4.5138,-0.1154 5.5124,-0.011 8.1451,0.8932 1.6507,0.5636 3.58,1.1311 4.2871,1.2613 0.7075,0.1301 1.4406,0.4999 1.6292,0.8218 0.1885,0.322 1.0083,0.5854 1.8218,0.5854 0.8228,0 1.8289,0.3329 2.267,0.7502 0.9495,0.9039 1.8744,1.5152 4.1424,2.7366 0.9429,0.508 1.9492,1.2565 2.2358,1.6634 0.4797,0.6814 3.3196,2.2979 4.1032,2.3358 0.1863,0.011 0.4749,0.2093 0.643,0.445 0.1687,0.2357 0.9438,0.6572 1.7234,0.9366 1.2141,0.4349 1.456,0.4077 1.6849,-0.1889 0.1463,-0.3831 0.04,-0.7723 -0.2388,-0.8651 -0.2782,-0.093 -0.4999,-0.49 -0.4928,-0.8831 0.022,-0.6445 0.056,-0.6411 0.4501,0.036 0.5355,0.9194 1.2518,0.9808 1.2518,0.1074 0,-0.8115 0.4654,-0.8156 1.5256,-0.013 1.0761,0.8139 1.4753,0.8134 1.4753,-10e-4 0,-0.5178 0.1776,-0.5636 0.8292,-0.2144 1.1346,0.6073 1.4496,0.5571 1.1646,-0.1855 -0.6111,-1.5925 0.6523,-0.8305 2.4801,1.496 2.0331,2.5879 3.2428,3.2412 3.2428,1.7515 0,-0.4463 0.275,-0.9171 0.6111,-1.0461 0.4416,-0.1697 0.8175,0.4422 1.3541,2.2048 0.4085,1.3416 1.098,2.8377 1.5323,3.3244 0.4342,0.4867 0.7895,1.1137 0.7895,1.3933 0,0.2795 0.4523,0.5082 1.0053,0.5082 0.553,0 1.3545,0.3858 1.7812,0.8575 1.636,1.8077 1.9783,0.721 0.6432,-2.0424 -0.4718,-0.9759 -0.8574,-1.8871 -0.8574,-2.0247 0,-0.609 1.8039,0.7928 2.2334,1.7356 0.2618,0.575 0.7311,1.0453 1.0423,1.0453 0.8116,0 1.2054,-2.0197 0.637,-3.267 -0.5586,-1.2304 -0.6356,-2.7349 -0.1376,-2.7349 0.5452,0 1.3716,0.9739 1.3716,1.6167 0,0.3234 0.2891,0.8771 0.6424,1.2303 0.3535,0.3534 0.7689,1.1595 0.9235,1.7914 0.1552,0.6319 0.4111,1.2455 0.5704,1.3635 0.8591,0.6364 3.8246,0.1124 4.7231,3.3426 0.14,0.5012 0.3857,1.2951 0.8573,1.7218 0.4716,0.4269 0.8575,1.0223 0.8575,1.3235 0,1.0194 0.4671,2.4091 1.7737,2.122 0.9505,-0.2085 1.5128,0.011 2.6744,1.0321 0.8089,0.7129 1.6939,1.2994 1.9664,1.3031 0.2725,0 1.1885,0.9715 2.0356,2.1504 0.847,1.1788 4.4384,0.4368 4.7968,0.4368 0.4379,0 0.5994,0.3169 0.4921,0.9646 -0.088,0.5304 -0.077,0.7234 0.022,0.4286 0.2693,-0.7877 0.8966,-0.6536 1.506,0.3216 0.2943,0.4716 0.9002,0.8573 1.3462,0.8573 0.6963,0 0.7788,0.2384 0.5838,1.6911 -0.2153,1.6044 -0.1818,1.6647 0.6427,1.1789 0.6812,-0.4012 0.9114,-0.3961 1.0634,0.025 0.1063,0.2947 0.5847,0.536 1.0623,0.536 1.8133,-0.02 0,0 -0.2861,0.4286 -1.5833,0 -0.8675,1.2702 0.4183,1.7185 1.0175,0.3548 4.2019,0.8072 4.2019,1.5494 0,0.4228 0.3129,0.5186 1.0716,0.3281 0.8106,-0.2034 1.0718,-0.1007 1.0718,0.4204 0,0.3793 -0.2894,0.6896 -0.643,0.6896 -0.3535,0 -0.643,0.1724 -0.643,0.3829 0,0.5654 1.2176,0.9324 1.5119,0.4558 0.4825,-0.7804 0.8464,-0.4023 0.944,0.9811 0.054,0.7642 0.2952,1.4551 0.5359,1.5354 0.2408,0.081 0.438,0.375 0.438,0.6551 0,0.2799 0.868,0.9832 1.929,1.5629 1.0609,0.5796 1.2084,4.0133 1.929,1.3782 0,0 -0.056,2.9708 1.9621,3.0258 2.2743,0.063 1.6053,9.0651 2.0517,9.732 0.1485,0.2211 0.1796,0.7446 0.069,1.1635 -0.1085,0.4189 0.022,0.8992 0.2957,1.0674 0.2954,0.1826 0.5858,-0.041 0.7201,-0.555 0.2764,-1.0573 1.7541,-1.5045 2.6779,-0.8103 0.3757,0.2822 0.7163,1.1841 0.7571,2.0042 0.047,0.9274 0.4112,1.7642 0.9669,2.214 0.6276,0.5083 0.7332,0.7905 0.3548,0.9494 -0.39,0.1637 -0.3369,0.3538 0.1954,0.6908 0.4026,0.2557 0.6224,0.7515 0.4881,1.1016 -0.1731,0.4518 -0.045,0.5596 0.4465,0.3715 0.4157,-0.1596 0.7168,-0.034 0.7561,0.3166 0.036,0.32 0.1107,0.7747 0.1642,1.0104 0.054,0.2359 0.1353,1.104 0.1797,1.9291 0.059,1.1117 0.1598,1.2953 0.391,0.7087 0.283,-0.7188 0.364,-0.7288 0.8799,-0.1074 0.3125,0.3766 0.7374,0.6846 0.9442,0.6846 0.5361,0 2.0654,1.5979 1.7915,1.8715 -0.1243,0.1257 -0.022,0.8454 0.2498,1.5998 0.3436,0.985 0.3473,1.529 0.022,1.9303 -0.6808,0.8206 -0.072,2.2484 1.5818,3.6989 0.8,0.7026 1.4547,1.454 1.4547,1.6702 0,0.2158 0.4824,1.1567 1.0719,2.0904 0.5894,0.9338 1.0717,2.076 1.0717,2.5385 0,0.4623 0.2175,0.9746 0.482,1.1385 0.3168,0.1956 0.4098,1.3135 0.2707,3.2537 -0.1931,2.7149 -0.1309,3.0199 0.7884,3.7423 0.9787,0.7698 0.9949,0.9049 0.7777,6.4057 -0.1221,3.0908 -0.043,6.2729 0.1797,7.0714 0.3626,1.3127 0.2825,1.5495 -0.8341,2.4719 -1.4465,1.1948 -1.66,2.3123 -0.3775,1.977 0.4716,-0.1233 0.8576,-0.049 0.8576,0.1642 0,0.2137 -0.3033,0.3886 -0.6739,0.3886 -1.164,0 -1.8094,1.0689 -1.8315,3.0333 -0.027,2.4551 -0.4905,4.6834 -0.973,4.6834 -0.2086,0 -0.3801,0.4586 -0.3801,1.0192 0,0.5606 -0.2894,1.2595 -0.6431,1.553 -0.3536,0.2934 -0.6431,0.9786 -0.6431,1.5223 -2.4303,7.4723 -3.5999,9.0716 -7.2877,13.8589 0,0.9111 -7.5561,7.3388 -8.6304,7.3417 -0.3228,8e-4 -1.2185,0.3867 -1.9906,0.8574 -0.772,0.4707 -1.9775,0.8558 -2.6793,0.8558 -0.8598,0 -1.2757,0.214 -1.2757,0.6565 0,0.3611 -0.2895,0.7676 -0.6431,0.9033 -0.3538,0.1358 -0.643,0.5154 -0.643,0.8439 0,0.3284 -0.386,0.5971 -0.8576,0.5971 -0.9863,0 -2.3577,1.2195 -2.3577,2.0969 0,0.3279 -0.2894,0.7444 -0.6432,0.9254 -0.8876,0.4541 -5.1217,1.6935 -5.7857,1.6935 -0.4901,0 -2.6861,2.4815 -2.6557,3.001 -0.7985,1.7613 4.7047,0.4844 4.1423,0.3041 -0.3293,0.3291 -0.7875,0.291 -1.6005,-0.1332 -1.5602,-0.8141 -3.8857,-0.7741 -4.2107,0.073 -0.1952,0.5104 -0.778,0.6442 -2.4227,0.557 -1.394,-0.074 -1.6863,-0.058 -1.7968,0.2729 -0.095,0.2832 -0.565,0.5149 -1.0459,0.5149 -0.7284,0 -0.7851,-0.1074 -0.3404,-0.6431 0.4474,-0.5389 -0.1621,-0.516 -0.9617,-0.516 -1.2226,1.2409 -1.0671,-0.4587 -1.8989,-0.7832 -0.5638,0.074 -1.4236,-0.2261 -1.9105,-0.6668 -0.5473,-0.4954 -1.2338,-0.7098 -1.7998,-0.5617 -0.5029,0.1315 -1.3917,0.022 -1.9749,-0.2439 -0.7977,-0.3636 -1.2633,-0.3564 -1.8803,0.029 -1.1045,0.6898 -1.6886,0.6444 -1.6886,-0.1312 0,-0.3536 -0.2896,-0.6431 -0.6432,-0.6431 -0.3538,0 -0.6431,-0.2893 -0.6431,-0.643 0,-0.3572 -0.3811,-0.643 -0.8575,-0.643 -0.4716,0 -0.8571,0.1928 -0.8571,0.4286 0,0.2359 0.1709,0.4287 0.3786,0.4287 0.2084,0 0.4794,0.3859 0.6028,0.8573 0.3374,3.7456 0.068,3.8715 -2.6569,2.4934 -1.2624,-0.6247 -1.945,-0.7593 -2.2588,-0.4454 -0.6059,0.6058 -0.066,1.3818 0.9583,1.3818 0.458,0 0.8322,0.2763 0.8322,0.6141 l 0.1998,2.4731 c 20.9964,41.0683 45.9352,99.7649 41.3937,133.2761 0,1.3618 0.2708,2.2464 0.8637,2.8827 0.4701,0.5048 1.0402,1.4052 1.2665,2.0006 0.2434,0.6394 0.7492,1.0828 1.2354,1.0828 0.9906,0 2.7821,3.1776 3.156,4.6673 0.7853,3.9859 -0.9342,5.1891 -0.9575,8.224 -1.1289,3.7046 7.4313,13.949 12.4157,19.2615 19.4003,21.2812 13.3463,22.2538 28.8875,39.923 14.7452,18.0414 26.1763,27.9558 20.4303,47.9644 -4.3169,11.8888 -12.6983,16.2787 -27.0085,18.262 -3.8543,0.5602 -7.288,3.1921 -7.288,5.5866 1.2929,11.6107 2.0973,31.1648 2.0409,32.7312 0.022,1.4031 1.0742,10.6382 -0.5608,15.7484 -2.3193,3.8725 -7.3896,10.336 -12.2124,13.4077 -2.4201,0.8587 -3.8431,1.2234 -3.8431,2.1209 8.1687,8.6171 11.578,20.6477 9.6634,27.9962 -0.344,0.8233 -1.8075,2.6314 -3.2521,4.0179 -43.7028,39.8728 -3.278,49.7759 -19.998,86.1179 -21.875,48.686 -112.3575,6.9762 -129.6001,51.089 -17.8374,55.9252 -15.0308,32.7485 -38.5604,80.4821 -14.1026,55.1742 -21.4524,54.0419 -16.4999,96.0704 24.3157,24.6008 56.7983,74.3553 66.2447,103.0291 1.1,2.9813 6.7482,7.9548 -1.1926,6.9342 z"
       id="path9066"
       inkscape:connector-curvature="0"
       sodipodi:nodetypes="cccccccccscscccsscccsscccscscsccccscsssssssssscscssccccscssccssssscscsscsccssssssssssssssscscscsscsscccccssscccssscsccscssscsssssccsccsccsccssscsssssscscsssssscsccccsccsscsscsccscsscscssssscccscsssccccssscscsssssccccscccccscsccsssssccscscccscccscsccsccsssccccsccsccsscsccssscccssccscccsssscccsscssscccsscsccscsscscssccsccscccscscsscccssscsccsscscssscssscscsscsscccsccscscsssscsssscccscscccsccccscsscssscssscsscscsscccsssscccscccssscccsssssscccsssccccccccccccccsccscccsssscccscscsscssccccssssssscsccccccsccccsccssssssccsscccscsccccccccccccccccccc" />
  </g>
</svg>
