<?xml version="1.0" encoding="UTF-8" standalone="no"?>
<!-- Created with Inkscape (http://www.inkscape.org/) -->

<svg
   xmlns:dc="http://purl.org/dc/elements/1.1/"
   xmlns:cc="http://creativecommons.org/ns#"
   xmlns:rdf="http://www.w3.org/1999/02/22-rdf-syntax-ns#"
   xmlns:svg="http://www.w3.org/2000/svg"
   xmlns="http://www.w3.org/2000/svg"
   xmlns:sodipodi="http://sodipodi.sourceforge.net/DTD/sodipodi-0.dtd"
   xmlns:inkscape="http://www.inkscape.org/namespaces/inkscape"
   width="180.62221mm"
   height="78.333244mm"
   viewBox="0 0 639.99996 277.55874"
   id="svg4436"
   version="1.1"
   inkscape:version="0.91 r13725"
   sodipodi:docname="soundcloudlogo.svg">
  <defs
     id="defs4438" />
  <sodipodi:namedview
     id="base"
     pagecolor="#ffffff"
     bordercolor="#666666"
     borderopacity="1.0"
     inkscape:pageopacity="0.0"
     inkscape:pageshadow="2"
     inkscape:zoom="0.35355339"
     inkscape:cx="233.77305"
     inkscape:cy="-149.65765"
     inkscape:document-units="px"
     inkscape:current-layer="layer1"
     showgrid="false"
     inkscape:window-width="1920"
     inkscape:window-height="1057"
     inkscape:window-x="-8"
     inkscape:window-y="-8"
     inkscape:window-maximized="1"
     fit-margin-top="0"
     fit-margin-left="0"
     fit-margin-right="0"
     fit-margin-bottom="0" />
  <metadata
     id="metadata4441">
    <rdf:RDF>
      <cc:Work
         rdf:about="">
        <dc:format>image/svg+xml</dc:format>
        <dc:type
           rdf:resource="http://purl.org/dc/dcmitype/StillImage" />
        <dc:title></dc:title>
      </cc:Work>
    </rdf:RDF>
  </metadata>
  <g
     inkscape:label="Layer 1"
     inkscape:groupmode="layer"
     id="layer1"
     transform="translate(-442.42602,146.09317)">
    <path
       style="fill:#ff8989;fill-opacity:1"
       d="m 1045.3706,588.37727 0,-128.93748 42.5884,0 42.5884,0 0,128.93748 0,128.93749 -42.5884,0 -42.5884,0 0,-128.93749 z m 133.0732,0.007 0.1622,-128.94398 42.7691,-2e-4 42.7693,-2e-4 0.21,17.56515 0.21,17.56516 4.6133,-6.24528 c 17.4321,-23.59884 41.1795,-35.12732 72.3585,-35.12732 26.1352,0 48.786,8.20798 65.3073,23.66534 8.3004,7.76589 13.3362,14.46156 18.633,24.77464 7.637,14.86906 11.9873,31.11852 13.7031,51.18438 0.479,5.60188 0.805,40.6047 0.81,86.94179 l 0.01,77.56431 -42.7838,-0.202 -42.7838,-0.202 -0.456,-76.97181 c -0.327,-55.21157 -0.722,-78.27211 -1.3951,-81.57141 -4.1206,-20.18895 -14.6252,-32.71111 -30.5785,-36.45171 -5.4344,-1.27419 -16.5664,-1.24899 -21.9802,0.05 -15.3239,3.6761 -27.1018,14.82606 -34.1718,32.35013 -1.152,2.85518 -1.3237,11.35577 -1.6743,82.8883 l -0.391,79.7068 -42.7506,0.202 -42.7506,0.202 0.1621,-128.94399 z M 1074.0012,422.25468 c -22.5749,-5.46449 -36.8601,-26.55444 -33.5181,-49.48448 3.3526,-23.00135 22.0425,-37.73561 47.8666,-37.73561 15.1308,0 27.3009,4.71388 35.8982,13.90456 7.9614,8.51079 11.7696,18.51366 11.7696,30.91483 0,20.90425 -13.8711,37.74111 -34.9283,42.3962 -6.9307,1.5322 -20.7671,1.5345 -27.088,0.005 z"
       id="path5195"
       inkscape:connector-curvature="0" />
    <path
       style="fill:#fbd1a2;fill-opacity:1"
       d="m 827.09273,130.94469 c -40.50413,-0.45727 -46.43676,-0.93216 -48.63823,-3.89331 -3.70595,-4.98519 -3.64377,-255.00879 0.0638,-260.0805 8.00032,-10.94086 57.43479,-16.85785 86.61103,-10.36677 19.96534,4.44185 47.21042,18.21956 61.78243,31.2429 21.67623,19.372852 38.07458,47.631082 43.60393,75.139602 1.33038,6.61881 2.71768,13.09087 3.08309,14.38235 0.49069,1.73462 3.18568,1.56563 10.31543,-0.64687 15.13015,-4.69539 37.11489,-2.77261 52.93289,4.62953 63.3505,29.64538 59.9042,118.988818 -5.6102,145.432688 -11.4142,4.60711 -12.7561,4.68125 -84.80592,4.68125 -40.2644,0 -93.96712,-0.23446 -119.33916,-0.52087 z m -282.64649,-4.86163 c -3.67485,-17.2667 -5.44885,-70.359618 -3.29295,-98.549818 2.78012,-36.3527605 3.34551,-39.47535 7.14691,-39.47535 3.82208,0 4.42741,3.1667395 7.66758,40.11401 2.38841,27.23555 2.33088,35.43528 -0.46487,66.16339 -2.7296,29.999218 -3.68889,35.170548 -6.62967,35.734458 -2.25782,0.43307 -3.77776,-0.9356 -4.427,-3.98669 z m 26.14554,2.74412 c -0.55597,-0.89955 -2.12982,-17.12279 -3.4975,-36.051658 -1.97422,-27.32205 -1.97827,-45.48394 -0.0202,-88.1105105 1.35709,-29.5319295 3.26831,-54.4952795 4.24711,-55.4741095 0.97876,-0.97884 3.19424,-1.23689 4.9232,-0.57347 2.27223,0.87195 3.18964,4.14172 3.31036,11.79912 0.0923,5.82608 1.27183,29.54676 2.62209,52.71261 2.00228,34.34846 1.95657,48.59588 -0.24792,77.21944 -1.48661,19.304918 -3.08957,36.227988 -3.56215,37.606878 -0.9613,2.806 -6.21646,3.39503 -7.77611,0.8717 z m 25.76122,-0.50629 c -0.72806,-1.17796 -2.37511,-17.45943 -3.66,-36.181188 -2.65491,-38.6783 0.65306,-164.97269 4.41958,-168.73915 3.45301,-3.45317 8.34292,-0.0256 8.45666,5.92762 0.0582,3.06824 1.28465,33.10688 2.7245,66.7525195 2.18245,50.9932405 2.167,66.8483405 -0.0943,95.2707605 -1.49146,18.753358 -3.14032,35.225138 -3.66441,36.604028 -1.16535,3.06618 -6.37012,3.29851 -8.18286,0.36541 z m 25.83226,-0.36541 c -4.01359,-6.42747 -5.6968,-71.999308 -3.64978,-142.193778 2.16475,-74.24241 2.60723,-77.47995 10.18898,-74.57056 3.54047,1.35866 4.37762,12.17315 6.64868,85.8924095 1.49808,48.6298205 1.3677,71.9732805 -0.53828,96.3335605 -1.38362,17.683158 -3.1961,33.252348 -4.02807,34.598328 -1.96018,3.17171 -6.62384,3.1393 -8.62153,-0.0598 z m 26.01712,0 c -0.89256,-1.37889 -2.52536,-17.85067 -3.62846,-36.604028 -2.15657,-36.66216 0.65373,-178.42431 3.62846,-183.02021 2.39237,-3.69674 8.98028,-3.04688 10.16583,1.00285 0.56543,1.93048 2.07092,35.79981 3.3458,75.26514 1.79282,55.50326 1.76801,79.80693 -0.10836,107.305 -1.33494,19.552428 -2.83284,36.226768 -3.32879,37.054198 -1.44736,2.41476 -8.30344,1.73226 -10.07367,-1.00295 z m 25.02335,-2.0056 c -2.01462,-3.52709 -2.51685,-26.091418 -2.2988,-103.297908 0.15445,-54.33188 0.85508,-101.8551 1.55886,-105.60719 1.48686,-7.92469 6.51225,-10.74875 11.05404,-6.21154 6.87573,6.8691 8.21523,206.197328 1.4589,217.122238 -2.47846,4.00796 -8.96964,2.90211 -11.773,-2.0056 z m 27.47072,2.44677 c -4.56387,-7.38415 -5.48985,-167.813808 -1.17482,-203.518378 1.15253,-9.53632 1.50731,-10.0285 7.22898,-10.0285 6.44237,0.0266 6.9204,13.05958 7.47368,21.05988 2.08692,30.17615 2.2755,167.228788 0.24995,181.515908 -1.56291,11.02193 -2.15458,12.08615 -7.03261,12.65067 -2.92955,0.33898 -5.96474,-0.41685 -6.74518,-1.67958 z m 26.04797,-0.44117 c -0.51723,-1.37889 -1.71949,-17.39938 -2.6715,-35.601178 -1.71534,-32.78951 0.60584,-199.131172 2.82899,-202.728132 1.36127,-4.72677 9.40898,-6.79444 12.518,0.65374 3.0122,3.645 5.99046,160.735242 3.82424,201.726402 -0.97176,18.393118 -2.69601,34.570278 -3.83163,35.949168 -1.13543,1.379 -4.23887,2.50723 -6.89629,2.50723 -2.65732,0 -5.25469,-1.12823 -5.77181,-2.50723 z m 27.58729,0 c -1.12742,-1.37889 -2.95356,-17.81006 -4.05819,-36.513788 -2.4419,-41.34949 0.72991,-213.234182 4.00785,-217.183762 3.49499,-4.21114 11.51131,-3.04248 13.5958,1.98208 2.96106,7.13761 5.35951,175.954012 3.05595,215.111442 -1.10311,18.753358 -2.73581,35.225138 -3.62837,36.604028 -0.89225,1.379 -3.71516,2.50723 -6.27282,2.50723 -2.55767,0 -5.5728,-1.12823 -6.70022,-2.50723 z m -235.13903,-1.85854 c -0.0202,-1.45982 -1.34485,-17.54512 -2.9584,-35.745198 -2.57915,-29.09075 -2.57653,-37.32198 0.022,-68.09141 2.81339,-33.30707 4.73023,-41.4759 8.70854,-37.11071 0.95492,1.04798 3.13349,18.6028895 4.84074,39.01088 2.84873,34.0491 2.82966,39.82951 -0.23205,70.17672 -2.85813,28.328128 -3.84008,33.167478 -6.84663,33.742528 -1.93051,0.36926 -3.52126,-0.523 -3.5349,-1.98281 z m -24.88854,-4.01606 c -0.54612,-2.5604 -2.07019,-17.65895 -3.38684,-33.552328 -1.90745,-23.02535 -1.85937,-35.94451 0.23667,-63.57991 1.44682,-19.0755805 3.3513,-35.84903 4.23218,-37.27434 3.49696,-5.65819 5.41231,2.6793395 8.61214,37.48905 3.13592,34.11432 3.12171,37.86098 -0.25811,68.03034 -2.29166,20.455838 -4.45108,32.217798 -6.00997,32.735128 -1.33823,0.4441 -2.87998,-1.28744 -3.42607,-3.84794 z m -24.20498,-8.1652 c -0.47057,-1.37899 -2.21478,-14.587508 -3.87605,-29.352248 -2.73767,-24.33162 -2.71276,-29.63654 0.26597,-56.66103 2.39922,-21.7667605 4.00407,-29.8160105 5.94471,-29.8160105 1.46208,0 2.64476,0.67694 2.62825,1.50428002 -0.016,0.82735 1.47795,14.45509048 3.32106,30.28390048 3.17719,27.28589 3.16301,30.27864 -0.27315,57.66379 -3.27102,26.069138 -5.55239,33.580988 -8.01079,26.377318 z m -24.0023,-22.062798 c -0.43421,-1.37889 -1.73784,-9.72761 -2.89691,-18.55273 -2.30657,-17.56193 0.89146,-51.18749 4.99768,-52.54774 1.34087,-0.44421 3.37828,6.48287 5.26138,17.88865 2.63539,15.96194 2.69597,20.89932 0.4252,34.65909 -1.45641,8.82512 -2.69582,17.17384 -2.75427,18.55273 -0.0583,1.37899 -1.03717,2.50712 -2.17491,2.50712 -1.13779,0 -2.42394,-1.12813 -2.85817,-2.50712 z"
       id="path5193"
       inkscape:connector-curvature="0"
       sodipodi:nodetypes="cccssscsssscccsssscccsccccsscccccccscscccscssccccsccscccccccsccsscccsscsccccsccsscscsccsccsscccsssssssssssscssscsssscsc" />
    <g
       id="g5221"
       transform="matrix(3.3119163,0,0,-3.3119163,740.35724,376.52572)" />
    <g
       id="g6515"
       transform="matrix(1.1434124,0,0,1.1434124,-1163.4226,-136.55308)"
       style="fill:#7dcfb6;fill-opacity:1">
      <path
         inkscape:connector-curvature="0"
         id="path5223"
         style="fill:#7dcfb6;fill-opacity:1;fill-rule:evenodd;stroke:none"
         d="m 0,0 c -33.347,0 -60.388,-27.035 -60.388,-60.388 0,-26.68 17.303,-49.316 41.297,-57.301 3.018,-0.559 4.126,1.31 4.126,2.905 0,1.439 -0.056,6.197 -0.082,11.243 -16.8,-3.653 -20.345,7.125 -20.345,7.125 -2.747,6.979 -6.705,8.836 -6.705,8.836 -5.479,3.748 0.413,3.671 0.413,3.671 6.064,-0.426 9.257,-6.224 9.257,-6.224 5.386,-9.231 14.127,-6.562 17.573,-5.019 0.543,3.902 2.107,6.567 3.834,8.075 -13.413,1.526 -27.513,6.705 -27.513,29.844 0,6.592 2.359,11.98 6.222,16.209 -0.627,1.521 -2.694,7.663 0.586,15.981 0,0 5.071,1.622 16.61,-6.191 4.817,1.338 9.983,2.009 15.115,2.033 5.132,-0.024 10.302,-0.695 15.128,-2.033 11.526,7.813 16.59,6.191 16.59,6.191 3.287,-8.318 1.22,-14.46 0.593,-15.981 3.872,-4.229 6.214,-9.617 6.214,-16.209 0,-23.195 -14.127,-28.301 -27.574,-29.796 2.166,-1.874 4.096,-5.549 4.096,-11.183 0,-8.08 -0.069,-14.583 -0.069,-16.572 0,-1.608 1.086,-3.49 4.147,-2.898 23.982,7.994 41.263,30.622 41.263,57.294 C 60.388,-27.035 33.351,0 0,0"
         transform="matrix(2.8965195,0,0,-2.8965195,1192.4151,409.01523)" />
      <g
         transform="matrix(2.8965195,0,0,-2.8965195,1083.7505,660.15274)"
         id="g5225"
         style="fill:#7dcfb6;fill-opacity:1">
        <path
           inkscape:connector-curvature="0"
           id="path5227"
           style="fill:#7dcfb6;fill-opacity:1;fill-rule:nonzero;stroke:none"
           d="m 0,0 c -0.133,-0.301 -0.605,-0.391 -1.035,-0.185 -0.439,0.198 -0.684,0.607 -0.542,0.908 0.13,0.308 0.602,0.394 1.04,0.188 C -0.099,0.714 0.151,0.301 0,0" />
      </g>
      <g
         transform="matrix(2.8965195,0,0,-2.8965195,1090.836,668.05589)"
         id="g5229"
         style="fill:#7dcfb6;fill-opacity:1">
        <path
           inkscape:connector-curvature="0"
           id="path5231"
           style="fill:#7dcfb6;fill-opacity:1;fill-rule:nonzero;stroke:none"
           d="M 0,0 C -0.288,-0.267 -0.852,-0.143 -1.233,0.279 -1.629,0.7 -1.702,1.264 -1.41,1.534 -1.113,1.801 -0.567,1.676 -0.172,1.255 0.224,0.829 0.301,0.271 0,0" />
      </g>
      <g
         transform="matrix(2.8965195,0,0,-2.8965195,1097.7325,678.12854)"
         id="g5233"
         style="fill:#7dcfb6;fill-opacity:1">
        <path
           inkscape:connector-curvature="0"
           id="path5235"
           style="fill:#7dcfb6;fill-opacity:1;fill-rule:nonzero;stroke:none"
           d="M 0,0 C -0.37,-0.258 -0.976,-0.017 -1.35,0.52 -1.72,1.058 -1.72,1.702 -1.341,1.96 -0.967,2.218 -0.37,1.985 0.009,1.453 0.378,0.907 0.378,0.263 0,0" />
      </g>
      <g
         transform="matrix(2.8965195,0,0,-2.8965195,1107.1801,687.86201)"
         id="g5237"
         style="fill:#7dcfb6;fill-opacity:1">
        <path
           inkscape:connector-curvature="0"
           id="path5239"
           style="fill:#7dcfb6;fill-opacity:1;fill-rule:nonzero;stroke:none"
           d="M 0,0 C -0.331,-0.365 -1.036,-0.267 -1.552,0.232 -2.08,0.718 -2.227,1.409 -1.896,1.774 -1.56,2.14 -0.851,2.037 -0.331,1.543 0.193,1.057 0.352,0.361 0,0" />
      </g>
      <g
         transform="matrix(2.8965195,0,0,-2.8965195,1120.2144,693.5134)"
         id="g5241"
         style="fill:#7dcfb6;fill-opacity:1">
        <path
           inkscape:connector-curvature="0"
           id="path5243"
           style="fill:#7dcfb6;fill-opacity:1;fill-rule:nonzero;stroke:none"
           d="m 0,0 c -0.147,-0.473 -0.825,-0.687 -1.509,-0.486 -0.683,0.207 -1.13,0.76 -0.992,1.238 0.142,0.476 0.824,0.7 1.513,0.485 C -0.306,1.031 0.142,0.481 0,0" />
      </g>
      <g
         transform="matrix(2.8965195,0,0,-2.8965195,1134.5301,694.5602)"
         id="g5245"
         style="fill:#7dcfb6;fill-opacity:1">
        <path
           inkscape:connector-curvature="0"
           id="path5247"
           style="fill:#7dcfb6;fill-opacity:1;fill-rule:nonzero;stroke:none"
           d="m 0,0 c 0.017,-0.498 -0.563,-0.911 -1.281,-0.92 -0.722,-0.016 -1.307,0.387 -1.315,0.877 0,0.503 0.568,0.911 1.289,0.924 C -0.589,0.895 0,0.494 0,0" />
      </g>
      <g
         transform="matrix(2.8965195,0,0,-2.8965195,1147.85,692.29426)"
         id="g5249"
         style="fill:#7dcfb6;fill-opacity:1">
        <path
           inkscape:connector-curvature="0"
           id="path5251"
           style="fill:#7dcfb6;fill-opacity:1;fill-rule:nonzero;stroke:none"
           d="m 0,0 c 0.086,-0.485 -0.413,-0.984 -1.126,-1.117 -0.701,-0.129 -1.35,0.172 -1.439,0.653 -0.087,0.498 0.42,0.997 1.121,1.126 C -0.73,0.786 -0.091,0.494 0,0" />
      </g>
    </g>
  </g>
</svg>
