<?xml version="1.0" encoding="UTF-8" standalone="no"?>
<svg
   xmlns:dc="http://purl.org/dc/elements/1.1/"
   xmlns:cc="http://creativecommons.org/ns#"
   xmlns:rdf="http://www.w3.org/1999/02/22-rdf-syntax-ns#"
   xmlns:svg="http://www.w3.org/2000/svg"
   xmlns="http://www.w3.org/2000/svg"
   xmlns:sodipodi="http://sodipodi.sourceforge.net/DTD/sodipodi-0.dtd"
   xmlns:inkscape="http://www.inkscape.org/namespaces/inkscape"
   version="1.1"
   id="svg6883"
   viewBox="0 0 379.77171 230.18906"
   height="64.96447mm"
   width="107.18001mm"
   inkscape:version="0.91 r13725"
   sodipodi:docname="synth.svg">
  <sodipodi:namedview
     pagecolor="#ffffff"
     bordercolor="#666666"
     borderopacity="1"
     objecttolerance="10"
     gridtolerance="10"
     guidetolerance="10"
     inkscape:pageopacity="0"
     inkscape:pageshadow="2"
     inkscape:window-width="1920"
     inkscape:window-height="1057"
     id="namedview5083"
     showgrid="false"
     inkscape:zoom="2.5164887"
     inkscape:cx="129.74751"
     inkscape:cy="110.42649"
     inkscape:window-x="-8"
     inkscape:window-y="1072"
     inkscape:window-maximized="1"
     inkscape:current-layer="svg6883"
     fit-margin-top="0"
     fit-margin-left="0"
     fit-margin-right="0"
     fit-margin-bottom="0" />
  <defs
     id="defs6885" />
  <metadata
     id="metadata6888">
    <rdf:RDF>
      <cc:Work
         rdf:about="">
        <dc:format>image/svg+xml</dc:format>
        <dc:type
           rdf:resource="http://purl.org/dc/dcmitype/StillImage" />
        <dc:title></dc:title>
      </cc:Work>
    </rdf:RDF>
  </metadata>
  <rect
     style="opacity:1;fill:none;fill-opacity:1;stroke:#ffffff;stroke-width:1;stroke-miterlimit:4;stroke-dasharray:none;stroke-opacity:1"
     id="rect10246"
     width="355.07007"
     height="143.52832"
     x="-23.908058"
     y="88.554695"
     ry="3"
     transform="matrix(0.96592583,-0.25881905,0.25881905,0.96592583,0,0)" />
  <rect
     style="opacity:1;fill:none;fill-opacity:1;stroke:#ffffff;stroke-width:1.12483716;stroke-miterlimit:4;stroke-dasharray:none;stroke-opacity:1"
     id="rect10248"
     width="14.024771"
     height="55.729088"
     x="28.085661"
     y="173.78868"
     transform="matrix(0.96592583,-0.25881905,0.25881906,0.96592582,0,0)" />
  <rect
     y="173.78868"
     x="44.272076"
     height="55.729088"
     width="14.024771"
     id="rect10250"
     style="opacity:1;fill:none;fill-opacity:1;stroke:#ffffff;stroke-width:1.12483716;stroke-miterlimit:4;stroke-dasharray:none;stroke-opacity:1"
     transform="matrix(0.96592583,-0.25881905,0.25881906,0.96592582,0,0)" />
  <rect
     style="opacity:1;fill:none;fill-opacity:1;stroke:#ffffff;stroke-width:1.12483716;stroke-miterlimit:4;stroke-dasharray:none;stroke-opacity:1"
     id="rect10252"
     width="14.024771"
     height="55.729088"
     x="60.458488"
     y="173.78868"
     transform="matrix(0.96592583,-0.25881905,0.25881906,0.96592582,0,0)" />
  <rect
     y="173.78868"
     x="76.644897"
     height="55.729088"
     width="14.024771"
     id="rect10310"
     style="opacity:1;fill:none;fill-opacity:1;stroke:#ffffff;stroke-width:1.12483716;stroke-miterlimit:4;stroke-dasharray:none;stroke-opacity:1"
     transform="matrix(0.96592583,-0.25881905,0.25881906,0.96592582,0,0)" />
  <rect
     style="opacity:1;fill:none;fill-opacity:1;stroke:#ffffff;stroke-width:1.12483716;stroke-miterlimit:4;stroke-dasharray:none;stroke-opacity:1"
     id="rect10312"
     width="14.024771"
     height="55.729088"
     x="109.01772"
     y="173.78868"
     transform="matrix(0.96592583,-0.25881905,0.25881906,0.96592582,0,0)" />
  <rect
     y="173.78868"
     x="125.20414"
     height="55.729088"
     width="14.024771"
     id="rect10346"
     style="opacity:1;fill:none;fill-opacity:1;stroke:#ffffff;stroke-width:1.12483716;stroke-miterlimit:4;stroke-dasharray:none;stroke-opacity:1"
     transform="matrix(0.96592583,-0.25881905,0.25881906,0.96592582,0,0)" />
  <rect
     style="opacity:1;fill:none;fill-opacity:1;stroke:#ffffff;stroke-width:1.12483716;stroke-miterlimit:4;stroke-dasharray:none;stroke-opacity:1"
     id="rect10360"
     width="14.024771"
     height="55.729088"
     x="92.831314"
     y="173.78868"
     transform="matrix(0.96592583,-0.25881905,0.25881906,0.96592582,0,0)" />
  <rect
     style="opacity:1;fill:none;fill-opacity:1;stroke:#ffffff;stroke-width:1.12483716;stroke-miterlimit:4;stroke-dasharray:none;stroke-opacity:1"
     id="rect10350"
     width="7.8693852"
     height="31.269934"
     x="39.256618"
     y="174.17924"
     transform="matrix(0.96592583,-0.25881905,0.25881906,0.96592582,0,0)" />
  <rect
     y="174.17924"
     x="55.443035"
     height="31.269934"
     width="7.8693852"
     id="rect10352"
     style="opacity:1;fill:none;fill-opacity:1;stroke:#ffffff;stroke-width:1.12483716;stroke-miterlimit:4;stroke-dasharray:none;stroke-opacity:1"
     transform="matrix(0.96592583,-0.25881905,0.25881906,0.96592582,0,0)" />
  <rect
     style="opacity:1;fill:none;fill-opacity:1;stroke:#ffffff;stroke-width:1.12483716;stroke-miterlimit:4;stroke-dasharray:none;stroke-opacity:1"
     id="rect10354"
     width="7.8693852"
     height="31.269934"
     x="71.629448"
     y="174.17924"
     transform="matrix(0.96592583,-0.25881905,0.25881906,0.96592582,0,0)" />
  <rect
     y="174.17924"
     x="104.00227"
     height="31.269934"
     width="7.8693852"
     id="rect10356"
     style="opacity:1;fill:none;fill-opacity:1;stroke:#ffffff;stroke-width:1.12483716;stroke-miterlimit:4;stroke-dasharray:none;stroke-opacity:1"
     transform="matrix(0.96592583,-0.25881905,0.25881906,0.96592582,0,0)" />
  <rect
     style="opacity:1;fill:none;fill-opacity:1;stroke:#ffffff;stroke-width:1.12483716;stroke-miterlimit:4;stroke-dasharray:none;stroke-opacity:1"
     id="rect10358"
     width="7.8693852"
     height="31.269934"
     x="120.18868"
     y="174.17924"
     transform="matrix(0.96592583,-0.25881905,0.25881906,0.96592582,0,0)" />
  <rect
     y="173.78868"
     x="141.36859"
     height="55.729088"
     width="14.024771"
     id="rect10378"
     style="opacity:1;fill:none;fill-opacity:1;stroke:#ffffff;stroke-width:1.12483716;stroke-miterlimit:4;stroke-dasharray:none;stroke-opacity:1"
     transform="matrix(0.96592583,-0.25881905,0.25881906,0.96592582,0,0)" />
  <rect
     style="opacity:1;fill:none;fill-opacity:1;stroke:#ffffff;stroke-width:1.12483716;stroke-miterlimit:4;stroke-dasharray:none;stroke-opacity:1"
     id="rect10380"
     width="14.024771"
     height="55.729088"
     x="157.55501"
     y="173.78868"
     transform="matrix(0.96592583,-0.25881905,0.25881906,0.96592582,0,0)" />
  <rect
     y="173.78868"
     x="173.74141"
     height="55.729088"
     width="14.024771"
     id="rect10382"
     style="opacity:1;fill:none;fill-opacity:1;stroke:#ffffff;stroke-width:1.12483716;stroke-miterlimit:4;stroke-dasharray:none;stroke-opacity:1"
     transform="matrix(0.96592583,-0.25881905,0.25881906,0.96592582,0,0)" />
  <rect
     style="opacity:1;fill:none;fill-opacity:1;stroke:#ffffff;stroke-width:1.12483716;stroke-miterlimit:4;stroke-dasharray:none;stroke-opacity:1"
     id="rect10384"
     width="14.024771"
     height="55.729088"
     x="189.92783"
     y="173.78868"
     transform="matrix(0.96592583,-0.25881905,0.25881906,0.96592582,0,0)" />
  <rect
     y="173.78868"
     x="222.30064"
     height="55.729088"
     width="14.024771"
     id="rect10386"
     style="opacity:1;fill:none;fill-opacity:1;stroke:#ffffff;stroke-width:1.12483716;stroke-miterlimit:4;stroke-dasharray:none;stroke-opacity:1"
     transform="matrix(0.96592583,-0.25881905,0.25881906,0.96592582,0,0)" />
  <rect
     style="opacity:1;fill:none;fill-opacity:1;stroke:#ffffff;stroke-width:1.12483716;stroke-miterlimit:4;stroke-dasharray:none;stroke-opacity:1"
     id="rect10388"
     width="14.024771"
     height="55.729088"
     x="238.48706"
     y="173.78868"
     transform="matrix(0.96592583,-0.25881905,0.25881906,0.96592582,0,0)" />
  <rect
     y="173.78868"
     x="206.11424"
     height="55.729088"
     width="14.024771"
     id="rect10390"
     style="opacity:1;fill:none;fill-opacity:1;stroke:#ffffff;stroke-width:1.12483716;stroke-miterlimit:4;stroke-dasharray:none;stroke-opacity:1"
     transform="matrix(0.96592583,-0.25881905,0.25881906,0.96592582,0,0)" />
  <rect
     y="174.17924"
     x="152.53955"
     height="31.269934"
     width="7.8693852"
     id="rect10392"
     style="opacity:1;fill:none;fill-opacity:1;stroke:#ffffff;stroke-width:1.12483716;stroke-miterlimit:4;stroke-dasharray:none;stroke-opacity:1"
     transform="matrix(0.96592583,-0.25881905,0.25881906,0.96592582,0,0)" />
  <rect
     style="opacity:1;fill:none;fill-opacity:1;stroke:#ffffff;stroke-width:1.12483716;stroke-miterlimit:4;stroke-dasharray:none;stroke-opacity:1"
     id="rect10394"
     width="7.8693852"
     height="31.269934"
     x="168.72597"
     y="174.17924"
     transform="matrix(0.96592583,-0.25881905,0.25881906,0.96592582,0,0)" />
  <rect
     y="174.17924"
     x="184.91237"
     height="31.269934"
     width="7.8693852"
     id="rect10396"
     style="opacity:1;fill:none;fill-opacity:1;stroke:#ffffff;stroke-width:1.12483716;stroke-miterlimit:4;stroke-dasharray:none;stroke-opacity:1"
     transform="matrix(0.96592583,-0.25881905,0.25881906,0.96592582,0,0)" />
  <rect
     style="opacity:1;fill:none;fill-opacity:1;stroke:#ffffff;stroke-width:1.12483716;stroke-miterlimit:4;stroke-dasharray:none;stroke-opacity:1"
     id="rect10398"
     width="7.8693852"
     height="31.269934"
     x="217.2852"
     y="174.17924"
     transform="matrix(0.96592583,-0.25881905,0.25881906,0.96592582,0,0)" />
  <rect
     y="174.17924"
     x="233.47162"
     height="31.269934"
     width="7.8693852"
     id="rect10400"
     style="opacity:1;fill:none;fill-opacity:1;stroke:#ffffff;stroke-width:1.12483716;stroke-miterlimit:4;stroke-dasharray:none;stroke-opacity:1"
     transform="matrix(0.96592583,-0.25881905,0.25881906,0.96592582,0,0)" />
  <rect
     style="opacity:1;fill:none;fill-opacity:1;stroke:#ffffff;stroke-width:1;stroke-miterlimit:4;stroke-dasharray:none;stroke-opacity:1"
     id="rect10404"
     width="14.024771"
     height="55.729088"
     x="254.72119"
     y="173.78868"
     transform="matrix(0.96592582,-0.25881905,0.25881905,0.96592582,0,0)" />
  <rect
     y="173.78868"
     x="270.90762"
     height="55.729088"
     width="14.024771"
     id="rect10406"
     style="opacity:1;fill:none;fill-opacity:1;stroke:#ffffff;stroke-width:1;stroke-miterlimit:4;stroke-dasharray:none;stroke-opacity:1"
     transform="matrix(0.96592582,-0.25881905,0.25881905,0.96592582,0,0)" />
  <rect
     style="opacity:1;fill:none;fill-opacity:1;stroke:#ffffff;stroke-width:1;stroke-miterlimit:4;stroke-dasharray:none;stroke-opacity:1"
     id="rect10408"
     width="14.024771"
     height="55.729088"
     x="287.09406"
     y="173.78868"
     transform="matrix(0.96592582,-0.25881905,0.25881905,0.96592582,0,0)" />
  <rect
     y="173.78868"
     x="303.28049"
     height="55.729088"
     width="14.024771"
     id="rect10410"
     style="opacity:1;fill:none;fill-opacity:1;stroke:#ffffff;stroke-width:1;stroke-miterlimit:4;stroke-dasharray:none;stroke-opacity:1"
     transform="matrix(0.96592582,-0.25881905,0.25881905,0.96592582,0,0)" />
  <rect
     style="opacity:1;fill:none;fill-opacity:1;stroke:#ffffff;stroke-width:1;stroke-miterlimit:4;stroke-dasharray:none;stroke-opacity:1"
     id="rect10418"
     width="7.8693852"
     height="31.269932"
     x="265.89215"
     y="174.17924"
     transform="matrix(0.96592582,-0.25881905,0.25881905,0.96592582,0,0)" />
  <rect
     y="174.17924"
     x="282.07864"
     height="31.269932"
     width="7.8693852"
     id="rect10420"
     style="opacity:1;fill:none;fill-opacity:1;stroke:#ffffff;stroke-width:1;stroke-miterlimit:4;stroke-dasharray:none;stroke-opacity:1"
     transform="matrix(0.96592582,-0.25881905,0.25881905,0.96592582,0,0)" />
  <rect
     style="opacity:1;fill:none;fill-opacity:1;stroke:#ffffff;stroke-width:1;stroke-miterlimit:4;stroke-dasharray:none;stroke-opacity:1"
     id="rect10422"
     width="7.8693852"
     height="31.269932"
     x="298.26501"
     y="174.17924"
     transform="matrix(0.96592582,-0.25881905,0.25881905,0.96592582,0,0)" />
  <circle
     style="opacity:1;fill:none;fill-opacity:1;stroke:#ffffff;stroke-width:1;stroke-miterlimit:4;stroke-dasharray:none;stroke-opacity:1"
     id="path10440"
     cx="9.2248802"
     cy="198.54927"
     r="4.129415"
     transform="matrix(0.96592582,-0.25881905,0.25881905,0.96592582,0,0)" />
  <rect
     style="opacity:1;fill:none;fill-opacity:1;stroke:#ffffff;stroke-width:1;stroke-miterlimit:4;stroke-dasharray:none;stroke-opacity:1"
     id="rect10442"
     width="28.080023"
     height="1.8006221"
     x="-5.0510859"
     y="197.82234"
     ry="0.54227406"
     transform="matrix(0.96592582,-0.25881905,0.25881905,0.96592582,0,0)" />
  <circle
     r="3.3883667"
     cy="-100.75832"
     cx="135.6219"
     id="circle10452"
     style="opacity:1;fill:none;fill-opacity:1;stroke:#ffffff;stroke-width:0.76669985;stroke-miterlimit:4;stroke-dasharray:none;stroke-opacity:1"
     transform="matrix(0.25881906,0.96592582,-0.96592582,0.25881906,0,0)" />
  <rect
     ry="0.44495973"
     y="-101.49706"
     x="108.90221"
     height="1.4774897"
     width="34.851768"
     id="rect10454"
     style="opacity:1;fill:none;fill-opacity:1;stroke:#ffffff;stroke-width:0.76669985;stroke-miterlimit:4;stroke-dasharray:none;stroke-opacity:1"
     transform="matrix(0.25881906,0.96592582,-0.96592582,0.25881906,0,0)" />
  <circle
     r="3.3883667"
     cy="-122.14187"
     cx="122.93974"
     id="circle10460"
     style="opacity:1;fill:none;fill-opacity:1;stroke:#ffffff;stroke-width:0.76669985;stroke-miterlimit:4;stroke-dasharray:none;stroke-opacity:1"
     transform="matrix(0.25881906,0.96592582,-0.96592582,0.25881906,0,0)" />
  <rect
     ry="0.44495973"
     y="-122.88061"
     x="108.90221"
     height="1.4774897"
     width="34.851768"
     id="rect10462"
     style="opacity:1;fill:none;fill-opacity:1;stroke:#ffffff;stroke-width:0.76669985;stroke-miterlimit:4;stroke-dasharray:none;stroke-opacity:1"
     transform="matrix(0.25881906,0.96592582,-0.96592582,0.25881906,0,0)" />
  <circle
     transform="matrix(0.25881906,0.96592582,-0.96592582,0.25881906,0,0)"
     style="opacity:1;fill:none;fill-opacity:1;stroke:#ffffff;stroke-width:0.76669985;stroke-miterlimit:4;stroke-dasharray:none;stroke-opacity:1"
     id="circle10456"
     cx="117.03429"
     cy="-111.4501"
     r="3.3883667" />
  <rect
     transform="matrix(0.25881906,0.96592582,-0.96592582,0.25881906,0,0)"
     style="opacity:1;fill:none;fill-opacity:1;stroke:#ffffff;stroke-width:0.76669985;stroke-miterlimit:4;stroke-dasharray:none;stroke-opacity:1"
     id="rect10458"
     width="34.851768"
     height="1.4774897"
     x="108.90221"
     y="-112.18884"
     ry="0.44495973" />
  <rect
     ry="0.44495973"
     y="-112.18884"
     x="108.90221"
     height="1.4774897"
     width="34.851768"
     id="rect10464"
     style="opacity:1;fill:none;fill-opacity:1;stroke:#ffffff;stroke-width:0.76669985;stroke-miterlimit:4;stroke-dasharray:none;stroke-opacity:1"
     transform="matrix(0.25881906,0.96592582,-0.96592582,0.25881906,0,0)" />
  <circle
     r="3.3883667"
     cy="-132.83365"
     cx="118.0024"
     id="circle10466"
     style="opacity:1;fill:none;fill-opacity:1;stroke:#ffffff;stroke-width:0.76669985;stroke-miterlimit:4;stroke-dasharray:none;stroke-opacity:1"
     transform="matrix(0.25881906,0.96592582,-0.96592582,0.25881906,0,0)" />
  <rect
     ry="0.44495973"
     y="-133.57239"
     x="108.90221"
     height="1.4774897"
     width="34.851768"
     id="rect10468"
     style="opacity:1;fill:none;fill-opacity:1;stroke:#ffffff;stroke-width:0.76669985;stroke-miterlimit:4;stroke-dasharray:none;stroke-opacity:1"
     transform="matrix(0.25881906,0.96592582,-0.96592582,0.25881906,0,0)" />
  <rect
     transform="matrix(0.25881906,0.96592582,-0.96592582,0.25881906,0,0)"
     style="opacity:1;fill:none;fill-opacity:1;stroke:#ffffff;stroke-width:0.76669985;stroke-miterlimit:4;stroke-dasharray:none;stroke-opacity:1"
     id="rect10470"
     width="34.851768"
     height="1.4774897"
     x="108.90221"
     y="-133.57239"
     ry="0.44495973" />
  <circle
     style="opacity:1;fill:none;fill-opacity:1;stroke:#ffffff;stroke-width:0.93437994;stroke-miterlimit:4;stroke-dasharray:none;stroke-opacity:1"
     id="path10444"
     cx="31.574133"
     cy="126.77146"
     r="6.1735816"
     transform="matrix(0.96592582,-0.25881906,0.25881906,0.96592582,0,0)" />
  <circle
     r="6.1735816"
     cy="126.77146"
     cx="52.848949"
     id="circle10480"
     style="opacity:1;fill:none;fill-opacity:1;stroke:#ffffff;stroke-width:0.93437994;stroke-miterlimit:4;stroke-dasharray:none;stroke-opacity:1"
     transform="matrix(0.96592582,-0.25881906,0.25881906,0.96592582,0,0)" />
  <circle
     style="opacity:1;fill:none;fill-opacity:1;stroke:#ffffff;stroke-width:0.93437994;stroke-miterlimit:4;stroke-dasharray:none;stroke-opacity:1"
     id="circle10486"
     cx="147.35915"
     cy="-74.422577"
     r="6.1735816"
     transform="matrix(0.11459639,0.99341213,-0.99341213,0.11459639,0,0)" />
  <circle
     r="6.1735816"
     cy="-12.563564"
     cx="146.70174"
     id="circle10492"
     style="opacity:1;fill:none;fill-opacity:1;stroke:#ffffff;stroke-width:0.93437994;stroke-miterlimit:4;stroke-dasharray:none;stroke-opacity:1"
     transform="matrix(0.6472161,0.76230658,-0.76230658,0.6472161,0,0)" />
  <circle
     r="6.1735816"
     cy="126.77146"
     cx="10.299306"
     id="circle4232"
     style="opacity:1;fill:none;fill-opacity:1;stroke:#ffffff;stroke-width:0.93437994;stroke-miterlimit:4;stroke-dasharray:none;stroke-opacity:1"
     transform="matrix(0.96592582,-0.25881906,0.25881906,0.96592582,0,0)" />
  <circle
     r="6.1735816"
     cy="-77.740891"
     cx="211.12323"
     id="circle10492-5"
     style="opacity:1;fill:none;fill-opacity:1;stroke:#ffffff;stroke-width:0.93437994;stroke-miterlimit:4;stroke-dasharray:none;stroke-opacity:1"
     transform="matrix(0.64721611,0.76230657,-0.76230657,0.64721611,0,0)" />
  <circle
     r="6.1735816"
     cy="-93.523369"
     cx="218.59439"
     id="circle10492-6"
     style="opacity:1;fill:none;fill-opacity:1;stroke:#ffffff;stroke-width:0.93437994;stroke-miterlimit:4;stroke-dasharray:none;stroke-opacity:1"
     transform="matrix(0.64721611,0.76230657,-0.76230657,0.64721611,0,0)" />
  <circle
     r="6.1735816"
     cy="-160.35399"
     cx="216.66306"
     id="circle10492-9"
     style="opacity:1;fill:none;fill-opacity:1;stroke:#ffffff;stroke-width:0.93437994;stroke-miterlimit:4;stroke-dasharray:none;stroke-opacity:1"
     transform="matrix(0.6472161,0.76230658,-0.76230658,0.6472161,0,0)" />
  <circle
     r="6.1735816"
     cy="-178.26918"
     cx="225.1438"
     id="circle10492-4"
     style="opacity:1;fill:none;fill-opacity:1;stroke:#ffffff;stroke-width:0.93437994;stroke-miterlimit:4;stroke-dasharray:none;stroke-opacity:1"
     transform="matrix(0.6472161,0.76230658,-0.76230658,0.6472161,0,0)" />
  <circle
     r="6.1735816"
     cy="-196.18437"
     cx="233.62454"
     id="circle10492-50"
     style="opacity:1;fill:none;fill-opacity:1;stroke:#ffffff;stroke-width:0.93437994;stroke-miterlimit:4;stroke-dasharray:none;stroke-opacity:1"
     transform="matrix(0.6472161,0.76230658,-0.76230658,0.6472161,0,0)" />
  <circle
     r="6.1735816"
     cy="-165.28781"
     cx="252.56638"
     id="circle10492-2"
     style="opacity:1;fill:none;fill-opacity:1;stroke:#ffffff;stroke-width:0.93437994;stroke-miterlimit:4;stroke-dasharray:none;stroke-opacity:1"
     transform="matrix(0.6472161,0.76230658,-0.76230658,0.6472161,0,0)" />
  <circle
     r="6.1735816"
     cy="-183.20302"
     cx="261.04712"
     id="circle10492-3"
     style="opacity:1;fill:none;fill-opacity:1;stroke:#ffffff;stroke-width:0.93437994;stroke-miterlimit:4;stroke-dasharray:none;stroke-opacity:1"
     transform="matrix(0.6472161,0.76230658,-0.76230658,0.6472161,0,0)" />
  <circle
     r="6.1735816"
     cy="-205.29301"
     cx="271.50412"
     id="circle10492-95"
     style="opacity:1;fill:none;fill-opacity:1;stroke:#ffffff;stroke-width:0.93437994;stroke-miterlimit:4;stroke-dasharray:none;stroke-opacity:1"
     transform="matrix(0.6472161,0.76230658,-0.76230658,0.6472161,0,0)" />
  <circle
     r="3.3883667"
     cy="-153.29056"
     cx="135.6219"
     id="circle10452-4"
     style="opacity:1;fill:none;fill-opacity:1;stroke:#ffffff;stroke-width:0.76669985;stroke-miterlimit:4;stroke-dasharray:none;stroke-opacity:1"
     transform="matrix(0.25881906,0.96592582,-0.96592582,0.25881906,0,0)" />
  <rect
     ry="0.44495973"
     y="-154.0293"
     x="108.90221"
     height="1.4774897"
     width="34.851768"
     id="rect10454-3"
     style="opacity:1;fill:none;fill-opacity:1;stroke:#ffffff;stroke-width:0.76669985;stroke-miterlimit:4;stroke-dasharray:none;stroke-opacity:1"
     transform="matrix(0.25881906,0.96592582,-0.96592582,0.25881906,0,0)" />
  <circle
     r="3.3883667"
     cy="-163.98233"
     cx="135.6219"
     id="circle10452-3"
     style="opacity:1;fill:none;fill-opacity:1;stroke:#ffffff;stroke-width:0.76669985;stroke-miterlimit:4;stroke-dasharray:none;stroke-opacity:1"
     transform="matrix(0.25881906,0.96592582,-0.96592582,0.25881906,0,0)" />
  <rect
     ry="0.44495973"
     y="-164.72107"
     x="108.90221"
     height="1.4774897"
     width="34.851768"
     id="rect10454-4"
     style="opacity:1;fill:none;fill-opacity:1;stroke:#ffffff;stroke-width:0.76669985;stroke-miterlimit:4;stroke-dasharray:none;stroke-opacity:1"
     transform="matrix(0.25881906,0.96592582,-0.96592582,0.25881906,0,0)" />
  <circle
     r="3.3883667"
     cy="-174.6741"
     cx="135.6219"
     id="circle10452-0"
     style="opacity:1;fill:none;fill-opacity:1;stroke:#ffffff;stroke-width:0.76669985;stroke-miterlimit:4;stroke-dasharray:none;stroke-opacity:1"
     transform="matrix(0.25881906,0.96592582,-0.96592582,0.25881906,0,0)" />
  <rect
     ry="0.44495973"
     y="-175.41284"
     x="108.90221"
     height="1.4774897"
     width="34.851768"
     id="rect10454-5"
     style="opacity:1;fill:none;fill-opacity:1;stroke:#ffffff;stroke-width:0.76669985;stroke-miterlimit:4;stroke-dasharray:none;stroke-opacity:1"
     transform="matrix(0.25881906,0.96592582,-0.96592582,0.25881906,0,0)" />
  <circle
     r="3.3883667"
     cy="-185.36589"
     cx="135.6219"
     id="circle10452-1"
     style="opacity:1;fill:none;fill-opacity:1;stroke:#ffffff;stroke-width:0.76669985;stroke-miterlimit:4;stroke-dasharray:none;stroke-opacity:1"
     transform="matrix(0.25881906,0.96592582,-0.96592582,0.25881906,0,0)" />
  <rect
     ry="0.44495973"
     y="-186.10463"
     x="108.90221"
     height="1.4774897"
     width="34.851768"
     id="rect10454-1"
     style="opacity:1;fill:none;fill-opacity:1;stroke:#ffffff;stroke-width:0.76669985;stroke-miterlimit:4;stroke-dasharray:none;stroke-opacity:1"
     transform="matrix(0.25881906,0.96592582,-0.96592582,0.25881906,0,0)" />
  <circle
     r="3.3883667"
     cy="-295.71713"
     cx="135.6219"
     id="circle10452-9"
     style="opacity:1;fill:none;fill-opacity:1;stroke:#ffffff;stroke-width:0.76669985;stroke-miterlimit:4;stroke-dasharray:none;stroke-opacity:1"
     transform="matrix(0.25881906,0.96592582,-0.96592582,0.25881906,0,0)" />
  <rect
     ry="0.44495973"
     y="-296.45587"
     x="108.90221"
     height="1.4774897"
     width="34.851768"
     id="rect10454-8"
     style="opacity:1;fill:none;fill-opacity:1;stroke:#ffffff;stroke-width:0.76669985;stroke-miterlimit:4;stroke-dasharray:none;stroke-opacity:1"
     transform="matrix(0.25881906,0.96592582,-0.96592582,0.25881906,0,0)" />
  <circle
     r="3.3883665"
     cy="-307.72165"
     cx="126.3281"
     id="circle10452-16"
     style="opacity:1;fill:none;fill-opacity:1;stroke:#ffffff;stroke-width:0.93437994;stroke-miterlimit:4;stroke-dasharray:none;stroke-opacity:1"
     transform="matrix(0.25881905,0.96592583,-0.96592583,0.25881905,0,0)" />
  <rect
     ry="0.44495973"
     y="-308.46039"
     x="108.90221"
     height="1.4774897"
     width="34.851772"
     id="rect10454-0"
     style="opacity:1;fill:none;fill-opacity:1;stroke:#ffffff;stroke-width:0.93437994;stroke-miterlimit:4;stroke-dasharray:none;stroke-opacity:1"
     transform="matrix(0.25881905,0.96592583,-0.96592583,0.25881905,0,0)" />
  <rect
     style="opacity:1;fill:none;fill-opacity:1;stroke:#ffffff;stroke-width:1;stroke-miterlimit:4;stroke-dasharray:none;stroke-opacity:1"
     id="rect4398"
     width="5.1912642"
     height="10.382528"
     x="7.7036672"
     y="151.47679"
     transform="matrix(0.96592582,-0.25881905,0.25881905,0.96592582,0,0)" />
  <rect
     style="opacity:1;fill:none;fill-opacity:1;stroke:#ffffff;stroke-width:1;stroke-miterlimit:4;stroke-dasharray:none;stroke-opacity:1"
     id="rect4398-0"
     width="5.1912642"
     height="10.382528"
     x="28.978512"
     y="151.47679"
     transform="matrix(0.96592582,-0.25881905,0.25881905,0.96592582,0,0)" />
  <rect
     style="opacity:1;fill:none;fill-opacity:1;stroke:#ffffff;stroke-width:1;stroke-miterlimit:4;stroke-dasharray:none;stroke-opacity:1"
     id="rect4398-6"
     width="5.1912642"
     height="10.382528"
     x="71.528137"
     y="151.47679"
     transform="matrix(0.96592582,-0.25881905,0.25881905,0.96592582,0,0)" />
  <rect
     style="opacity:1;fill:none;fill-opacity:1;stroke:#ffffff;stroke-width:1;stroke-miterlimit:4;stroke-dasharray:none;stroke-opacity:1"
     id="rect4398-3"
     width="5.1912642"
     height="10.382528"
     x="199.17451"
     y="121.13683"
     transform="matrix(0.96592582,-0.25881905,0.25881905,0.96592582,0,0)" />
  <rect
     style="opacity:1;fill:none;fill-opacity:1;stroke:#ffffff;stroke-width:1;stroke-miterlimit:4;stroke-dasharray:none;stroke-opacity:1"
     id="rect4398-38"
     width="5.1912642"
     height="10.382528"
     x="215.22023"
     y="121.13683"
     transform="matrix(0.96592582,-0.25881905,0.25881905,0.96592582,0,0)" />
  <rect
     style="opacity:1;fill:none;fill-opacity:1;stroke:#ffffff;stroke-width:1;stroke-miterlimit:4;stroke-dasharray:none;stroke-opacity:1"
     id="rect4398-4"
     width="5.1912642"
     height="10.382528"
     x="199.17451"
     y="151.47679"
     transform="matrix(0.96592582,-0.25881905,0.25881905,0.96592582,0,0)" />
  <rect
     style="opacity:1;fill:none;fill-opacity:1;stroke:#ffffff;stroke-width:1;stroke-miterlimit:4;stroke-dasharray:none;stroke-opacity:1"
     id="rect4398-46"
     width="5.1912642"
     height="10.382528"
     x="215.22023"
     y="151.47679"
     transform="matrix(0.96592582,-0.25881905,0.25881905,0.96592582,0,0)" />
  <rect
     style="opacity:1;fill:none;fill-opacity:1;stroke:#ffffff;stroke-width:1;stroke-miterlimit:4;stroke-dasharray:none;stroke-opacity:1"
     id="rect4398-2"
     width="5.1912642"
     height="10.382528"
     x="235.04144"
     y="151.47679"
     transform="matrix(0.96592582,-0.25881905,0.25881905,0.96592582,0,0)" />
  <circle
     transform="matrix(-0.96592582,0.25881906,-0.25881906,-0.96592582,0,0)"
     style="opacity:1;fill:none;fill-opacity:1;stroke:#ffffff;stroke-width:0.76669985;stroke-miterlimit:4;stroke-dasharray:none;stroke-opacity:1"
     id="circle4453"
     cx="-103.49987"
     cy="-159.46049"
     r="3.3883667" />
  <rect
     transform="matrix(-0.96592582,0.25881906,-0.25881906,-0.96592582,0,0)"
     style="opacity:1;fill:none;fill-opacity:1;stroke:#ffffff;stroke-width:0.76669985;stroke-miterlimit:4;stroke-dasharray:none;stroke-opacity:1"
     id="rect4455"
     width="34.851768"
     height="1.4774897"
     x="-130.21956"
     y="-160.19923"
     ry="0.44495973" />
  <circle
     transform="matrix(0.25881906,0.96592582,-0.96592582,0.25881906,0,0)"
     style="opacity:1;fill:none;fill-opacity:1;stroke:#ffffff;stroke-width:0.76669985;stroke-miterlimit:4;stroke-dasharray:none;stroke-opacity:1"
     id="circle4459"
     cx="135.6219"
     cy="-90.066544"
     r="3.3883667" />
  <rect
     transform="matrix(0.25881906,0.96592582,-0.96592582,0.25881906,0,0)"
     style="opacity:1;fill:none;fill-opacity:1;stroke:#ffffff;stroke-width:0.76669985;stroke-miterlimit:4;stroke-dasharray:none;stroke-opacity:1"
     id="rect4461"
     width="34.851768"
     height="1.4774897"
     x="108.90221"
     y="-90.805283"
     ry="0.44495973" />
</svg>
